<?xml version="1.0" standalone="no"?><!DOCTYPE svg PUBLIC "-//W3C//DTD SVG 1.1//EN" "http://www.w3.org/Graphics/SVG/1.1/DTD/svg11.dtd"><svg t="1763215569055" class="icon" viewBox="0 0 1024 1024" version="1.1" xmlns="http://www.w3.org/2000/svg" p-id="7046" xmlns:xlink="http://www.w3.org/1999/xlink" width="200" height="200"><path d="M226.1 793.3V605.2c0-156.9 128.4-285.3 285.3-285.3s285.3 128.4 285.3 285.3v188.1c0 14.3-11.6 25.9-25.9 25.9H252c-14.3 0-25.9-11.6-25.9-25.9z" fill="#1afa29" p-id="7047"></path><path d="M770.7 841.9H252c-26.8 0-48.6-21.8-48.6-48.6V605.2c0-169.8 138.2-308 308-308s308 138.2 308 308v188.1c-0.1 26.8-21.9 48.6-48.7 48.6zM511.3 342.6c-144.8 0-262.6 117.8-262.6 262.6v188.1c0 1.8 1.5 3.2 3.2 3.2h518.7c1.8 0 3.2-1.5 3.2-3.2V605.2c0.1-144.8-117.7-262.6-262.5-262.6zM835.5 939.2H187.2c-12.5 0-22.7-10.2-22.7-22.7s10.2-22.7 22.7-22.7h648.4c12.5 0 22.7 10.2 22.7 22.7-0.1 12.5-10.3 22.7-22.8 22.7z" fill="#1afa29" p-id="7048"></path><path d="M511.3 264.9c-12.5 0-22.7-10.2-22.7-22.7V86.6c0-12.5 10.2-22.7 22.7-22.7S534 74.1 534 86.6v155.6c0 12.5-10.1 22.7-22.7 22.7zM281.1 264.9c-5.8 0-11.6-2.2-16-6.6l-110-110c-8.9-8.9-8.9-23.2 0-32.1 8.9-8.9 23.2-8.9 32.1 0l110 110c8.9 8.9 8.9 23.2 0 32.1-4.5 4.3-10.3 6.6-16.1 6.6zM741.6 264.9c-5.8 0-11.6-2.2-16-6.6-8.9-8.9-8.9-23.2 0-32.1l110-110c8.9-8.9 23.2-8.9 32.1 0 8.9 8.9 8.9 23.2 0 32.1l-110 110c-4.5 4.3-10.3 6.6-16.1 6.6z" fill="#1afa29" p-id="7049"></path></svg>