<?xml version="1.0" standalone="no"?><!DOCTYPE svg PUBLIC "-//W3C//DTD SVG 1.1//EN" "http://www.w3.org/Graphics/SVG/1.1/DTD/svg11.dtd"><svg t="1763215643658" class="icon" viewBox="0 0 1024 1024" version="1.1" xmlns="http://www.w3.org/2000/svg" p-id="8202" xmlns:xlink="http://www.w3.org/1999/xlink" width="200" height="200"><path d="M42.674 789.304c-11.766 0-21.344-9.562-21.344-21.312V127.994c0-11.766 9.578-21.328 21.344-21.328h938.634c11.782 0 21.376 9.562 21.376 21.328v639.998c0 11.75-9.594 21.312-21.376 21.312H42.674z" fill="#5D9CEC" p-id="8203"></path><path d="M981.308 85.322H42.674C19.112 85.322 0.004 104.432 0.004 127.994v639.998c0 23.56 19.108 42.686 42.67 42.686h938.634c23.562 0 42.688-19.124 42.688-42.686V127.994c0-23.562-19.124-42.672-42.688-42.672z m0 682.67H42.674V127.994h938.634v639.998z" fill="#E6E9ED" p-id="8204"></path><path d="M682.688 938.678H341.33l42.546-170.498 256.186-0.062z" fill="#CCD1D9" p-id="8205"></path><path d="M31.892 682.68H992.12v122.06H31.892z" fill="#E6E9ED" p-id="8206"></path><path d="M533.328 746.68c0 11.75-9.546 21.312-21.328 21.312s-21.328-9.562-21.328-21.312c0-11.812 9.546-21.376 21.328-21.376s21.328 9.564 21.328 21.376z" fill="#434A54" p-id="8207"></path><path d="M682.688 895.99H341.33c-11.782 0-21.328 9.562-21.328 21.312 0 11.812 9.546 21.376 21.328 21.376h341.358c11.75 0 21.308-9.562 21.308-21.376 0-11.75-9.558-21.312-21.308-21.312z" fill="#E6E9ED" p-id="8208"></path><path d="M634.688 682.68H512l128-554.686h122.684z" fill="#FFFFFF" opacity=".1" p-id="8209"></path></svg>