<?xml version="1.0" standalone="no"?><!DOCTYPE svg PUBLIC "-//W3C//DTD SVG 1.1//EN" "http://www.w3.org/Graphics/SVG/1.1/DTD/svg11.dtd"><svg t="1763196848126" class="icon" viewBox="0 0 1024 1024" version="1.1" xmlns="http://www.w3.org/2000/svg" p-id="17997" xmlns:xlink="http://www.w3.org/1999/xlink" width="200" height="200"><path d="M330.752 1024l-1.4336-594.3296L830.5664 151.808 832 746.112z" fill="#99C9F2" p-id="17998"></path><path d="M329.3184 1024L65.4592 872.192 64 277.9136l263.8592 151.808L329.3184 1024z" fill="#B8D9F6" p-id="17999"></path><path d="M271.488 530.0992L107.0848 435.2l-0.4352-40.064 164.4288 94.72 0.4096 40.192z m0 88.8832l-164.4032-94.7456-0.4352-40.192 164.4288 94.848 0.4096 40.0896z m0 289.1008L107.0848 813.312l-0.4352-40.064 164.4288 94.7456 0.4096 40.0896zM132.608 630.784l-25.5232-14.4896-0.4352-35.456 25.5488 14.4896 0.4096 35.456z m46.2848 27.2384l-25.5232-14.592-0.4096-35.4816 25.5232 14.592 0.4096 35.4816z m46.3104 25.984l-25.5488-14.592-0.4096-35.456 25.5488 14.592 0.4096 35.456z m46.2848 26.8288l-25.5232-14.4896-0.4352-35.456 25.5488 14.4896 0.4096 35.456z" fill="#5CA8EA" p-id="18000"></path><path d="M329.3184 430.592L64 277.9136 565.1456 0l263.8336 151.808z" fill="#E0EFFB" p-id="18001"></path><path d="M448 691.2h512v204.8H448z" fill="#5CA8EA" p-id="18002"></path><path d="M524.8 719.6672v146.2272h22.3232V808.96h37.888c35.0208 0 52.6336-14.9504 52.6336-44.8512 0-29.696-17.408-44.4416-52.224-44.4416H524.8z m22.3232 19.0464h36.4544c10.8544 0 18.8416 2.048 23.9616 6.144 5.12 3.6864 7.7824 10.24 7.7824 19.2512s-2.6624 15.5648-7.5776 19.6608c-5.12 4.096-13.1072 6.144-24.1664 6.144h-36.4544v-51.2zM658.3296 719.6672v146.2272h102.6048v-19.0464H680.448v-127.1808zM842.8544 716.8c-23.3472 0-40.96 7.5776-53.248 23.1424-11.0592 13.7216-16.384 31.3344-16.384 53.0432 0 22.1184 5.12 39.7312 15.7696 52.8384 12.0832 15.1552 30.1056 22.9376 54.0672 22.9376 15.7696 0 29.2864-4.5056 40.5504-13.5168 12.0832-9.6256 19.6608-22.9376 22.9376-39.936h-21.7088c-2.8672 11.4688-7.9872 20.0704-15.36 25.8048-6.9632 5.3248-15.9744 7.9872-26.624 7.9872-16.384 0-28.4672-5.12-36.2496-15.36-7.3728-9.6256-11.0592-23.1424-11.0592-40.7552 0-16.9984 3.6864-30.5152 11.264-40.3456 7.9872-10.8544 19.8656-16.1792 35.6352-16.1792 10.6496 0 19.2512 2.2528 26.2144 6.9632 6.9632 4.7104 11.6736 12.0832 14.1312 21.9136h21.7088c-2.2528-14.7456-8.8064-26.624-19.456-35.2256-11.0592-9.0112-25.1904-13.312-42.1888-13.312z" fill="#FCFCFC" p-id="18003"></path></svg>