<?xml version="1.0" encoding="UTF-8"?>
<!-- Uploaded to: SVG Find, www.svgfind.com, Generator: SVG Find Mixer Tools -->
<svg fill="#000000" width="800px" height="800px" version="1.1" viewBox="144 144 512 512" xmlns="http://www.w3.org/2000/svg">
 <path d="m309.58 308.54c-10.453-0.41016-18.852-9.0273-18.852-19.598v-0.019531c0-10.828 8.8203-19.613 19.641-19.613h29.246c10.816 0 19.578 8.7852 19.578 19.613v0.019531c0 10.57-8.3398 19.188-18.793 19.598v5.2305h14.262c2.5352 0 4.5312 2.0312 4.5312 4.5352v15.578c0 2.4219-1.875 4.4023-4.2891 4.5234l-0.24219 0.007812c-0.78516 0-1.5742 0.3125-2.1172 0.87109-0.54297 0.55469-0.84375 1.3086-0.84375 2.1016v3.4141h22.781c2.4766 0 4.5312 2.0312 4.5312 4.5312v4.6523c5.6211-1.9453 12.023 0.18359 15.289 5.4414l25.379 41.004 40.184-23.195c2.9609-1.7188 6.5273-2.1875 9.8516-1.293 2.418 0.64453 4.5312 1.9688 6.2227 3.7852h12.266c1.7539-7.8477 7.918-14.035 15.773-15.781v-8.2383c0-2.5078 1.9922-4.5312 4.5312-4.5312h32.875c2.5352 0 4.5312 2.0234 4.5312 4.5312v57.105c0 2.5-1.9961 4.5312-4.5312 4.5312h-32.875c-2.5391 0-4.5312-2.0312-4.5312-4.5312v-8.2422c-7.8555-1.7461-14.02-7.9297-15.773-15.777h-8.8828c0 1.0195-0.17969 2.0469-0.42187 3.0586-0.90625 3.3203-3.082 6.1562-6.043 7.8789-12.688 7.3008-38.492 22.199-51.121 29.508-2.9609 1.7148-6.5273 2.1875-9.8516 1.293-3.3203-0.89062-6.1641-3.0664-7.8555-6.0508 0 0-0.058594-0.003906-0.058594-0.011718 0-0.078125-0.0625-0.15234-0.12109-0.23047l-27.555-44.539c-2.9023 5.4609-8.0391 9.5234-14.203 10.984l-10.391 2.4766v56.781c8.2773 1.793 14.984 4.4219 19.273 7.4375 4.5352 3.1602 6.6484 6.9531 6.6484 10.695v41.863c0 3.9414-2.418 7.9766-7.4336 11.254-8.5195 5.5156-25.559 9.5039-45.199 9.5039-19.699 0-36.738-3.9883-45.199-9.5039-5.0156-3.2773-7.4336-7.3125-7.4336-11.254v-38.727-3.1367c0-3.7422 2.1172-7.5352 6.5859-10.695 4.293-3.0156 11-5.6445 19.34-7.4375v-56.781l-10.457-2.4766c-2.8398-0.67578-5.4961-1.9258-7.793-3.6133v38.195c0 0.32812 0 0.66016-0.0625 0.98438v0.22656c-0.12109 1.1953-0.35938 2.3477-0.78516 3.4258-0.66406 1.6836-1.6914 3.2383-2.9609 4.5391-1.3281 1.3047-2.8398 2.3008-4.5312 2.9453-1.0859 0.41406-2.2344 0.69141-3.4453 0.80078l-0.17969 0.015625c-0.36328 0.027343-0.66406 0.042969-1.0273 0.042969-0.36328 0-0.66406-0.015626-1.0273-0.042969l-0.18359-0.015625c-1.207-0.10938-2.3555-0.38672-3.4414-0.80078-1.6914-0.64453-3.2031-1.6406-4.5352-2.9453-1.3281-1.3008-2.293-2.8555-2.9609-4.5391-0.42188-1.082-0.66406-2.2305-0.78516-3.4258v-0.22656c-0.058594-0.32422-0.058594-0.65625-0.058594-0.98438v-59.012c0-3.4375 1.3906-6.7461 3.8047-9.1758 2.418-2.4336 5.7422-3.8047 9.1875-3.8047 1.3281 0 2.6602 0.21094 3.9258 0.60938v-4.5508c0-2.5 1.9961-4.5312 4.5352-4.5312h22.781v-3.4141c0-0.79297-0.30469-1.5469-0.90625-2.1016-0.54688-0.55859-1.2695-0.87109-2.0547-0.87109l-0.24219-0.007812c-2.418-0.12109-4.3516-2.1016-4.3516-4.5234v-15.578c0-2.5039 2.0547-4.5352 4.5312-4.5352h14.32zm58.98 171.77c-0.78516 0.41406-1.5742 0.82031-2.418 1.2188-1.2695 0.62109-2.6602 1.207-4.168 1.7578-9.0664 3.3438-22.059 5.4922-36.5 5.543h-0.96875c-14.441-0.050781-27.434-2.1992-36.559-5.543-1.4492-0.55078-2.8398-1.1367-4.168-1.7578-0.84766-0.39844-1.6328-0.80469-2.3555-1.2188v29.625c0 0.70703 0.48047 1.3008 1.1484 1.9414 1.2656 1.293 3.1406 2.4453 5.4961 3.5234 8.3398 3.8242 21.754 6.2305 36.922 6.2305 15.109 0 28.582-2.4062 36.922-6.2305 2.2969-1.0781 4.2305-2.2305 5.5-3.5234 0.60156-0.64062 1.1484-1.2344 1.1484-1.9414zm-65.746-7.707c-2.5391 0-4.5312-2.0312-4.5312-4.5312v-8.8477c-5.9844 1.4219-10.879 3.3008-14.082 5.5586-1.5703 1.082-2.7773 2.0078-2.7773 3.2891 0 0.3125 0.12109 0.60547 0.23828 0.88672l0.0625-0.027343c0.12109 0.1875 0.24219 0.37109 0.36328 0.55859 0.12109 0.17188 0.30078 0.34766 0.48437 0.51953 1.2656 1.2969 3.1406 2.4492 5.4961 3.5234 0.72656 0.32031 1.4531 0.62891 2.1758 0.93359 0.30469 0.10156 0.60547 0.21094 0.84766 0.3125 8.2188 3.0234 19.941 4.8945 32.934 4.9805l0.54297 0.003907h0.90625l0.42188-0.003907c13.055-0.085937 24.777-1.957 32.934-4.9805 0.30078-0.10156 0.60547-0.21094 0.84766-0.3125 0.78516-0.30469 1.5078-0.61328 2.2344-0.93359 2.2969-1.0742 4.2305-2.2266 5.5-3.5234 0.17969-0.17187 0.30078-0.34766 0.48438-0.51953 0.11719-0.1875 0.23828-0.37109 0.35938-0.55859-0.058594 0.089843-0.12109 0.1875-0.17969 0.28125 0.30078-0.36328 0.48438-0.73047 0.48438-1.1406 0-1.2812-1.2695-2.207-2.7812-3.2891-3.2031-2.2578-8.0977-4.1367-14.078-5.5586v9.0586l-0.0625 0.19922v0.39844l-0.058594 0.19531-0.0625 0.1875-0.058594 0.19141-0.0625 0.18359-0.058593 0.17969-0.0625 0.20703-0.12109 0.17969-0.11719 0.16797-0.0625 0.16406-0.12109 0.15625-0.24219 0.30469-0.12109 0.16016-0.17969 0.15234-0.12109 0.15234-0.17969 0.14453-0.18359 0.11328-0.12109 0.10938-0.17969 0.089844-0.12109 0.078125-0.12109 0.082031c-0.48438 0.23828-0.96875 0.40234-1.5117 0.47656l-0.17969 0.023437-0.18359 0.019531-0.24219 0.003906zm39.82-9.0625v-49.516h-35.289v49.516zm-75.594-34.359c-2.1758 0-3.9297-1.7578-3.9297-3.9297 0-2.1641 1.7539-3.9219 3.9297-3.9219 2.1758 0 3.9258 1.7578 3.9258 3.9219 0 2.1719-1.75 3.9297-3.9258 3.9297zm167.87-27.078-21.633 12.484c-0.90625 0.51953-1.5703 1.3711-1.8125 2.375-0.24219 0.92187-0.17969 1.9023 0.24219 2.7539l0.24219 0.33984c0.058594 0.078124 0.058594 0.14844 0.12109 0.23047 0.54297 0.72266 1.2695 1.2539 2.1758 1.4844 0.96484 0.27344 2.0547 0.12891 2.9609-0.38672l21.633-12.488zm-163.94 10.766v-46.617c0-1.0352-0.42188-2.0312-1.1484-2.7695-0.72266-0.73047-1.75-1.1484-2.7773-1.1484-1.0273 0-2.0547 0.41797-2.7812 1.1484-0.72266 0.73828-1.1484 1.7344-1.1484 2.7695v46.617c1.2695-0.39063 2.5391-0.60156 3.9297-0.60156 1.3906 0 2.6602 0.21094 3.9258 0.60156zm140.86-7.9062-25.258-40.766c-1.1484-1.8438-3.5664-2.4102-5.3789-1.2695-1.875 1.1406-2.418 3.5586-1.2695 5.4023l25.5 41.176c0.90625-1.0938 2.0547-2.0312 3.3242-2.7695zm125.02-44.723v48.039h-23.809v-48.039zm-194.21 44.723h-35.289v-63.578c0-3.1953-1.2695-6.2539-3.5039-8.5156-1.2109-1.1484-2.5391-2.043-4.0508-2.6406v-7.3945h50.336v7.3945c-1.4492 0.59766-2.8398 1.4922-3.9883 2.6406-2.2344 2.2617-3.5039 5.3203-3.5039 8.5156zm127.08-18.457v0.03125c0.54297 0.89453 0.66406 1.9648 0.42188 2.9648-0.30078 1.0039-0.96875 1.8555-1.8125 2.375l-21.633 12.484-3.9297-6.7891 21.633-12.492c0.90625-0.51953 1.9336-0.66016 2.9609-0.38672 0.96875 0.26562 1.8125 0.91797 2.3594 1.8125zm34.262-13.09v21.676c-4.2305-1.7695-7.25-5.957-7.25-10.832 0-4.8789 3.0195-9.0664 7.25-10.844zm-152.28 10.426 8.3359-1.9766c4.6562-1.1055 8.2812-4.7656 9.3672-9.4453v-0.003907c0.24219-1.1562-0.058594-2.3711-0.78516-3.3008-0.72266-0.92969-1.8711-1.4688-3.0195-1.4688h-13.898zm-53.418-16.195h-13.898c-1.2109 0-2.2969 0.53906-3.0234 1.4688-0.78516 0.92969-1.0273 2.1445-0.78516 3.3008v0.003907c1.0859 4.6797 4.7148 8.3398 9.3672 9.4453l8.3398 1.9766zm0-13.785h-18.25v3.9414c0 0.58203-0.12109 1.1367-0.30469 1.6445 1.4531-0.5625 3.0234-0.86328 4.6562-0.86328h13.898zm53.418 4.7227h13.898c1.5703 0 3.2031 0.30078 4.6523 0.86328-0.18359-0.50781-0.30469-1.0625-0.30469-1.6445v-3.9414h-18.246zm-20.367-44.816h-12.688v-5.2148h12.688zm17.77-29.367c-1.6953-3.5625-5.3203-6.0312-9.4883-6.0312h-29.246c-4.2305 0-7.8594 2.4688-9.5508 6.0312h14.383c2.5391 0 4.5312 2.0312 4.5312 4.5312 0 2.5039-1.9922 4.5352-4.5312 4.5352h-14.383c1.6914 3.5586 5.3203 6.0234 9.5508 6.0234h29.246c4.168 0 7.793-2.4648 9.4883-6.0234h-14.383c-2.4805 0-4.5312-2.0312-4.5312-4.5352 0-2.5 2.0508-4.5312 4.5312-4.5312z" fill-rule="evenodd"/>
</svg>