<?xml version="1.0" standalone="no"?><!DOCTYPE svg PUBLIC "-//W3C//DTD SVG 1.1//EN" "http://www.w3.org/Graphics/SVG/1.1/DTD/svg11.dtd"><svg t="1763196899803" class="icon" viewBox="0 0 1024 1024" version="1.1" xmlns="http://www.w3.org/2000/svg" p-id="19038" xmlns:xlink="http://www.w3.org/1999/xlink" width="200" height="200"><path d="M704 608c0 19.2-12.8 32-32 32h-384c-19.2 0-32-12.8-32-32s12.8-32 32-32h384c19.2 0 32 12.8 32 32zM256 416c0-19.2 12.8-32 32-32h384c19.2 0 32 12.8 32 32s-12.8 32-32 32h-384c-19.2 0-32-12.8-32-32z" fill="#1296db" p-id="19039"></path><path d="M947.2 480H896L832 448V224c0-19.2-12.8-32-32-32s-32 12.8-32 32V256H608l-25.6-57.6C576 192 569.6 192 563.2 192H390.4s-6.4 0-12.8 6.4l-25.6 57.6H192c-32 0-64 25.6-64 64l-57.6 25.6c-6.4 6.4-6.4 12.8-6.4 12.8v300.8c0 6.4 0 12.8 6.4 12.8l57.6 32c0 38.4 32 64 64 64h576v32c0 19.2 12.8 32 32 32s32-12.8 32-32V576l64-32h51.2c6.4 0 12.8-6.4 12.8-12.8v-32c0-12.8-6.4-19.2-12.8-19.2zM768 704H192V320h576v384z" fill="#1296db" p-id="19040"></path></svg>