<?xml version="1.0" standalone="no"?><!DOCTYPE svg PUBLIC "-//W3C//DTD SVG 1.1//EN" "http://www.w3.org/Graphics/SVG/1.1/DTD/svg11.dtd"><svg t="1763283274512" class="icon" viewBox="0 0 1024 1024" version="1.1" xmlns="http://www.w3.org/2000/svg" p-id="8436" xmlns:xlink="http://www.w3.org/1999/xlink" width="200" height="200"><path d="M512 1024C229.248 1024 0 794.752 0 512S229.248 0 512 0s512 229.248 512 512-229.248 512-512 512z m0-896C299.968 128 128 299.968 128 512c0 212.096 171.968 384 384 384s384-171.904 384-384c0-212.032-171.968-384-384-384z m277.12 544a64.021333 64.021333 0 1 1-23.424-87.424A64 64 0 0 1 789.12 672zM512 640c-70.656 0-128-57.344-128-128s57.344-128 128-128 128 57.344 128 128-57.344 128-128 128z m0-192a64.021333 64.021333 0 0 0 0 128 64.021333 64.021333 0 0 0 0-128z m0-128a64.021333 64.021333 0 0 1 0-128 64.021333 64.021333 0 0 1 0 128z m-189.696 375.424a64 64 0 1 1-64-110.869333 64 64 0 0 1 64 110.869333z" p-id="8437" fill="#FFA500"></path></svg>
