<?xml version="1.0" standalone="no"?><!DOCTYPE svg PUBLIC "-//W3C//DTD SVG 1.1//EN" "http://www.w3.org/Graphics/SVG/1.1/DTD/svg11.dtd"><svg t="1763634352812" class="icon" viewBox="0 0 1027 1024" version="1.1" xmlns="http://www.w3.org/2000/svg" p-id="5881" xmlns:xlink="http://www.w3.org/1999/xlink" width="200.5859375" height="200"><path d="M1024 19.2c0-16-3.2-19.2-19.2-19.2H19.2C3.2 0 0 3.2 0 19.2v985.6c0 16 3.2 19.2 19.2 19.2h988.8c16 0 19.2-3.2 19.2-19.2C1024 675.2 1024 348.8 1024 19.2z m-35.2 947.2c0 16-3.2 22.4-22.4 22.4H57.6c-22.4 3.2-25.6-6.4-25.6-22.4V508.8 57.6c0-19.2 6.4-25.6 25.6-25.6h905.6c19.2 0 25.6 6.4 25.6 25.6-3.2 304-3.2 608 0 908.8z" fill="#666666" p-id="5882"></path><path d="M956.8 515.2v416c0 19.2-3.2 28.8-25.6 25.6H92.8c-22.4 0-25.6-6.4-25.6-25.6V96c0-19.2 3.2-28.8 25.6-28.8h838.4c22.4 0 25.6 6.4 25.6 25.6v422.4z" fill="#666666" p-id="5883"></path><path d="M249.6 470.4c-35.2-22.4-67.2-44.8-105.6-70.4 35.2-22.4 70.4-48 105.6-70.4 3.2 3.2 3.2 3.2 3.2 6.4-3.2 25.6 9.6 32 35.2 32 60.8-3.2 118.4 0 179.2 0 16 0 19.2-3.2 19.2-19.2 0-22.4-3.2-44.8 0-70.4 3.2-22.4-3.2-32-28.8-28.8h-16c22.4-35.2 44.8-67.2 67.2-99.2 6.4-9.6 9.6-6.4 16 0 22.4 32 41.6 64 64 96C544 256 544 256 544 294.4V352c0 9.6 3.2 16 16 16h198.4c12.8 0 16-6.4 12.8-16v-25.6c38.4 25.6 70.4 48 108.8 70.4-35.2 25.6-70.4 48-102.4 70.4-3.2-3.2-6.4-3.2-3.2-3.2 3.2-32-12.8-35.2-38.4-32-54.4 3.2-112 0-166.4 0-16 0-22.4 3.2-22.4 19.2V640c0 16 6.4 19.2 22.4 19.2h172.8c22.4 0 35.2-3.2 32-28.8 0-3.2 0-6.4 3.2-12.8 35.2 25.6 70.4 48 108.8 70.4-38.4 25.6-70.4 48-105.6 70.4-6.4-3.2-6.4-9.6-6.4-12.8 3.2-19.2-6.4-25.6-25.6-25.6h-176c-19.2 0-25.6 6.4-22.4 25.6v112c0 16-3.2 19.2-19.2 19.2-41.6 0-41.6 0-41.6-41.6v-96c0-16-3.2-22.4-19.2-22.4h-192c-32 0-12.8 25.6-22.4 38.4-32-19.2-64-41.6-96-60.8-6.4-3.2-3.2-6.4 0-12.8 32-22.4 64-41.6 99.2-64-3.2 51.2-3.2 51.2 41.6 51.2h160c16 0 22.4-3.2 22.4-22.4v-195.2c0-12.8-3.2-19.2-19.2-19.2H268.8c-16 0-19.2 6.4-19.2 19.2 3.2 6.4 6.4 12.8 0 19.2z" fill="#FFFFFF" p-id="5884"></path></svg>