<?xml version="1.0" standalone="no"?><!DOCTYPE svg PUBLIC "-//W3C//DTD SVG 1.1//EN" "http://www.w3.org/Graphics/SVG/1.1/DTD/svg11.dtd"><svg t="1763605748521" class="icon" viewBox="0 0 1024 1024" version="1.1" xmlns="http://www.w3.org/2000/svg" p-id="8428" xmlns:xlink="http://www.w3.org/1999/xlink" width="200" height="200"><path d="M758.02 896.58H432.44c-32.43 0-58.71-26.29-58.71-58.71v-662c0-32.43 26.29-58.71 58.71-58.71h325.58c32.43 0 58.71 26.29 58.71 58.71v662c0 32.43-26.29 58.71-58.71 58.71z" fill="#7D8B8B" p-id="8429"></path><path d="M766.3 851.3H416.77c-12.78 0-23.15-10.36-23.15-23.15V238.96c0-12.78 10.36-23.15 23.15-23.15H766.3c12.78 0 23.15 10.36 23.15 23.15v589.19c0 12.79-10.37 23.15-23.15 23.15z" fill="#AFB8B8" p-id="8430"></path><path d="M362.93 120.49L252.75 15.53l-0.08-0.08c-3.56-3.27-9.35-0.74-9.35 4.13v984.52c0 4.91 5.87 7.43 9.43 4.05l110.18-104.94a5.594 5.594 0 0 0 1.74-4.05V124.52c0-1.52-0.63-2.98-1.74-4.03z m-5.33 780c0 1.46-94.15 86.62-94.15 86.62-2.99 3.25-7.92 0.84-7.92-3.87V40.45c0-4.71 4.94-7.12 7.92-3.87l92.7 85.55c0.92 1 1.44 17.34 1.44 18.82v759.54z" fill="#BDBFBE" p-id="8431"></path><path d="M357.6 140.95v759.54c0 1.46-94.15 86.62-94.15 86.62-2.99 3.25-7.92 0.84-7.92-3.87V40.45c0-4.71 4.94-7.12 7.92-3.87l92.7 85.55c0.92 1 1.45 17.34 1.45 18.82z" fill="#CACECF" p-id="8432"></path><path d="M356.15 122.13l-6.83 6.48-86.52-78.07c-2.74-3.15-7.29-0.8-7.29 3.76V40.45c0-4.71 4.94-7.12 7.92-3.87l92.72 85.55z" fill="#687474" p-id="8433"></path><path d="M357.6 140.95v759.54l-8.27-3.9V151.84c0-1.43 0.85-22.27 0-23.23l6.83-6.48c0.91 1 1.44 17.34 1.44 18.82z" fill="#747F7F" p-id="8434"></path><path d="M357.6 900.49c0 1.46-94.15 86.62-94.15 86.62-2.99 3.25-7.92 0.84-7.92-3.87v-13.85c0 4.56 4.54 6.91 7.29 3.76 0 0 86.52-75.15 86.52-76.56l8.26 3.9z" fill="#687474" p-id="8435"></path><path d="M349.33 151.84v744.74c0 1.41-86.52 76.56-86.52 76.56-2.74 3.15-7.29 0.8-7.29-3.76V54.3c0-4.56 4.54-6.91 7.29-3.76l86.52 78.07c0.85 0.97 0 21.81 0 23.23z" fill="#7D8B8B" p-id="8436"></path><path d="M252.75 1008.15c-23.17 22.07-27.97-22.05-27.97-22.05V27.64c5.27-34.93 26.38-13.75 27.89-12.19-3.56-3.27-9.35-0.74-9.35 4.13v984.52c0 4.91 5.87 7.43 9.43 4.05z" fill="#E3E5E4" p-id="8437"></path><path d="M357.6 656.51h7.07v83.04h-7.07z" fill="#AFB8B8" p-id="8438"></path><path d="M364.67 656.51h24.46v83.04h-24.46z" fill="#879494" p-id="8439"></path><path d="M373.36 656.51h7.07v83.04h-7.07z" fill="#AFB8B8" p-id="8440"></path><path d="M357.6 286.7h7.07v83.04h-7.07z" fill="#AFB8B8" p-id="8441"></path><path d="M364.67 286.7h24.46v83.04h-24.46z" fill="#879494" p-id="8442"></path><path d="M373.36 286.7h7.07v83.04h-7.07z" fill="#AFB8B8" p-id="8443"></path><path d="M676.13 202.71h-161.8a4.01 4.01 0 0 1-4.01-4.01v-39.17c0-2.22 1.8-4.01 4.01-4.01h161.8c2.22 0 4.01 1.8 4.01 4.01v39.17c0 2.21-1.8 4.01-4.01 4.01z" fill="#919898" p-id="8444"></path><path d="M515.46 163.22h157.3v8.35h-157.3zM515.46 185.69h157.3v8.35h-157.3z" fill="#6A7674" p-id="8445"></path><path d="M580.31 603.17h44.94v177.2h-44.94z" fill="#C3C6C3" p-id="8446"></path><path d="M580.31 630.57h44.94v122.41h-44.94z" fill="#FFFFFF" p-id="8447"></path><path d="M582.45 634.85h11.98v9.42h-11.98z" fill="#D4D0DB" p-id="8448"></path><path d="M582.45 645.98h38.09v7.7h-38.09z" fill="#F4E9AD" p-id="8449"></path><path d="M624.59 740.05v-0.6c-6.88 0.25-14.2 0.39-21.81 0.39-7.61 0-14.93-0.14-21.81-0.39v0.6c0 0.39 0.28 0.7 0.64 0.72 6.69 0.27 13.8 0.42 21.17 0.42s14.48-0.15 21.17-0.42c0.36-0.02 0.64-0.33 0.64-0.72z" fill="#EAEA00" p-id="8450"></path><path d="M624.59 739.45v-15.62c-2.81-0.11-5.7-0.19-8.65-0.24-4.27-0.1-8.66-0.14-13.16-0.14s-8.9 0.05-13.16 0.14c-2.95 0.06-5.84 0.14-8.65 0.24v15.62c6.88 0.25 14.2 0.39 21.81 0.39 7.61-0.01 14.94-0.14 21.81-0.39z" fill="#FFFF00" p-id="8451"></path><path d="M615.95 722.24v-1.39c-4.27-0.09-8.66-0.13-13.16-0.13s-8.9 0.04-13.16 0.13v1.39c4.27-0.09 8.66-0.13 13.16-0.13 4.49 0 8.89 0.04 13.16 0.13z" fill="#C3C300" p-id="8452"></path><path d="M615.95 697.1v-0.38c0-0.87-0.82-1.58-1.83-1.58h-22.67c-1.01 0-1.83 0.71-1.83 1.58v0.38h26.33z" fill="#FFFF00" p-id="8453"></path><path d="M615.95 720.86V697.1h-26.32v23.76c4.27-0.09 8.66-0.13 13.16-0.13 4.49 0 8.89 0.04 13.16 0.13z" fill="#EAEA00" p-id="8454"></path><path d="M602.78 699.06c-2.73 0-4.96 3.05-4.96 6.82 0 3.76 2.23 6.81 4.96 6.81 2.74 0 4.96-3.05 4.96-6.81 0.01-3.77-2.21-6.82-4.96-6.82z m0 12.44c-2.26 0-4.1-2.51-4.1-5.62 0-3.11 1.83-5.63 4.1-5.63 2.26 0 4.1 2.52 4.1 5.63s-1.83 5.62-4.1 5.62z" fill="#333333" p-id="8455"></path><path d="M617.7 723.36v-28.5c0-0.71-0.52-1.29-1.16-1.29h-27.51c-0.64 0-1.16 0.58-1.16 1.29v28.5c0.58-0.02 1.17-0.03 1.75-0.04v-26.54c0-0.91 0.82-1.64 1.83-1.64h22.67c1.01 0 1.83 0.74 1.83 1.64v26.54c0.58 0 1.17 0.02 1.75 0.04z" fill="#C3C6C3" p-id="8456"></path><path d="M624.59 723.83v-0.41c0-0.49-0.36-0.9-0.82-0.92-2.55-0.11-5.16-0.19-7.82-0.25-4.27-0.11-8.66-0.16-13.16-0.16s-8.9 0.05-13.16 0.16c-2.66 0.06-5.28 0.15-7.82 0.25-0.46 0.02-0.82 0.43-0.82 0.92v0.41c2.81-0.11 5.7-0.19 8.65-0.24 4.27-0.1 8.66-0.14 13.16-0.14s8.9 0.05 13.16 0.14c2.94 0.05 5.83 0.13 8.63 0.24z" fill="#FFFFB1" p-id="8457"></path><path d="M610.92 616.66c0 4.49-3.64 8.13-8.14 8.13a8.13 8.13 0 0 1-8.13-8.13c0-4.49 3.64-8.14 8.13-8.14s8.14 3.65 8.14 8.14z" fill="#434343" p-id="8458"></path><path d="M607.61 614.92h-2.29c-0.44 0-0.79-0.36-0.79-0.79v-2.29c0-0.44-0.35-0.79-0.79-0.79h-1.9c-0.44 0-0.79 0.35-0.79 0.79v2.29c0 0.44-0.35 0.79-0.79 0.79h-2.29c-0.44 0-0.79 0.35-0.79 0.79v1.9c0 0.44 0.36 0.79 0.79 0.79h2.29c0.44 0 0.79 0.35 0.79 0.79v2.29c0 0.44 0.36 0.79 0.79 0.79h1.9c0.44 0 0.79-0.36 0.79-0.79v-2.29c0-0.44 0.36-0.79 0.79-0.79h2.29c0.44 0 0.79-0.36 0.79-0.79v-1.9c0-0.44-0.36-0.79-0.79-0.79z m0.03 2.56c0 0.38-0.31 0.68-0.68 0.68h-1.98c-0.38 0-0.69 0.31-0.69 0.69v1.98c0 0.38-0.31 0.68-0.69 0.68h-1.64a0.68 0.68 0 0 1-0.68-0.68v-1.98c0-0.38-0.31-0.69-0.69-0.69h-1.98a0.69 0.69 0 0 1-0.69-0.68v-1.65c0-0.38 0.31-0.68 0.69-0.68h1.98c0.38 0 0.69-0.31 0.69-0.69v-1.98c0-0.38 0.31-0.68 0.68-0.68h1.64c0.38 0 0.69 0.31 0.69 0.68v1.98c0 0.38 0.31 0.69 0.69 0.69h1.98c0.38 0 0.68 0.31 0.68 0.68v1.65z" fill="#323232" p-id="8459"></path><path d="M607.64 615.83v1.65c0 0.38-0.31 0.68-0.68 0.68h-1.98c-0.38 0-0.69 0.31-0.69 0.69v1.98c0 0.38-0.31 0.68-0.69 0.68h-1.64a0.68 0.68 0 0 1-0.68-0.68v-1.98c0-0.38-0.31-0.69-0.69-0.69h-1.98a0.69 0.69 0 0 1-0.69-0.68v-1.65c0-0.38 0.31-0.68 0.69-0.68h1.98c0.38 0 0.69-0.31 0.69-0.69v-1.98c0-0.38 0.31-0.68 0.68-0.68h1.64c0.38 0 0.69 0.31 0.69 0.68v1.98c0 0.38 0.31 0.69 0.69 0.69h1.98c0.38 0 0.68 0.31 0.68 0.68z" fill="#2A2A2A" p-id="8460"></path><path d="M602.78 608.52c-4.49 0-8.13 3.64-8.13 8.14 0 4.49 3.64 8.13 8.13 8.13s8.14-3.64 8.14-8.13-3.65-8.14-8.14-8.14z m0 15.85c-4.25 0-7.71-3.45-7.71-7.71s3.45-7.71 7.71-7.71 7.71 3.45 7.71 7.71c0.01 4.25-3.45 7.71-7.71 7.71z" fill="#585858" p-id="8461"></path><path d="M610.92 766.9c0 4.49-3.64 8.13-8.14 8.13a8.13 8.13 0 0 1-8.13-8.13c0-4.49 3.64-8.14 8.13-8.14a8.14 8.14 0 0 1 8.14 8.14z" fill="#434343" p-id="8462"></path><path d="M607.61 765.16h-2.29c-0.44 0-0.79-0.36-0.79-0.79v-2.29c0-0.44-0.35-0.79-0.79-0.79h-1.9c-0.44 0-0.79 0.35-0.79 0.79v2.29c0 0.44-0.35 0.79-0.79 0.79h-2.29c-0.44 0-0.79 0.35-0.79 0.79v1.9c0 0.44 0.36 0.79 0.79 0.79h2.29c0.44 0 0.79 0.35 0.79 0.79v2.29c0 0.44 0.36 0.79 0.79 0.79h1.9c0.44 0 0.79-0.36 0.79-0.79v-2.29c0-0.44 0.36-0.79 0.79-0.79h2.29c0.44 0 0.79-0.36 0.79-0.79v-1.9c0-0.44-0.36-0.79-0.79-0.79z m0.03 2.56c0 0.38-0.31 0.68-0.68 0.68h-1.98c-0.38 0-0.69 0.31-0.69 0.69v1.98c0 0.38-0.31 0.68-0.69 0.68h-1.64a0.68 0.68 0 0 1-0.68-0.68v-1.98c0-0.38-0.31-0.69-0.69-0.69h-1.98a0.69 0.69 0 0 1-0.69-0.68v-1.65c0-0.38 0.31-0.68 0.69-0.68h1.98c0.38 0 0.69-0.31 0.69-0.69v-1.98c0-0.38 0.31-0.68 0.68-0.68h1.64c0.38 0 0.69 0.31 0.69 0.68v1.98c0 0.38 0.31 0.69 0.69 0.69h1.98c0.38 0 0.68 0.31 0.68 0.68v1.65z" fill="#323232" p-id="8463"></path><path d="M607.64 766.07v1.65c0 0.38-0.31 0.68-0.68 0.68h-1.98c-0.38 0-0.69 0.31-0.69 0.69v1.98c0 0.38-0.31 0.68-0.69 0.68h-1.64a0.68 0.68 0 0 1-0.68-0.68v-1.98c0-0.38-0.31-0.69-0.69-0.69h-1.98a0.69 0.69 0 0 1-0.69-0.68v-1.65c0-0.38 0.31-0.68 0.69-0.68h1.98c0.38 0 0.69-0.31 0.69-0.69v-1.98c0-0.38 0.31-0.68 0.68-0.68h1.64c0.38 0 0.69 0.31 0.69 0.68v1.98c0 0.38 0.31 0.69 0.69 0.69h1.98c0.38 0 0.68 0.3 0.68 0.68z" fill="#2A2A2A" p-id="8464"></path><path d="M602.78 758.76c-4.49 0-8.13 3.64-8.13 8.14 0 4.49 3.64 8.13 8.13 8.13s8.14-3.64 8.14-8.13c0-4.5-3.65-8.14-8.14-8.14z m0 15.84c-4.25 0-7.71-3.45-7.71-7.71s3.45-7.71 7.71-7.71 7.71 3.45 7.71 7.71c0.01 4.26-3.45 7.71-7.71 7.71z" fill="#585858" p-id="8465"></path><path d="M698.88 634.85h11.98v9.42h-11.98z" fill="#D4D0DB" p-id="8466"></path><path d="M674.26 603.17h44.94v177.2h-44.94z" fill="#C3C6C3" p-id="8467"></path><path d="M674.26 630.57h44.94v122.41h-44.94z" fill="#FFFFFF" p-id="8468"></path><path d="M676.4 634.85h11.98v9.42H676.4z" fill="#D4D0DB" p-id="8469"></path><path d="M676.4 645.98h38.09v7.7H676.4z" fill="#F4E9AD" p-id="8470"></path><path d="M718.54 740.05v-0.6c-6.88 0.25-14.2 0.39-21.81 0.39-7.61 0-14.93-0.14-21.81-0.39v0.6c0 0.39 0.28 0.7 0.64 0.72 6.69 0.27 13.8 0.42 21.17 0.42s14.48-0.15 21.17-0.42c0.36-0.02 0.64-0.33 0.64-0.72z" fill="#EAEA00" p-id="8471"></path><path d="M718.54 739.45v-15.62c-2.81-0.11-5.7-0.19-8.65-0.24-4.27-0.1-8.66-0.14-13.16-0.14s-8.9 0.05-13.16 0.14c-2.95 0.06-5.84 0.14-8.65 0.24v15.62c6.88 0.25 14.2 0.39 21.81 0.39 7.61-0.01 14.94-0.14 21.81-0.39z" fill="#FFFF00" p-id="8472"></path><path d="M709.9 722.24v-1.39c-4.27-0.09-8.66-0.13-13.16-0.13s-8.9 0.04-13.16 0.13v1.39c4.27-0.09 8.66-0.13 13.16-0.13s8.89 0.04 13.16 0.13z" fill="#C3C300" p-id="8473"></path><path d="M709.9 697.1v-0.38c0-0.87-0.82-1.58-1.83-1.58H685.4c-1.01 0-1.83 0.71-1.83 1.58v0.38h26.33z" fill="#FFFF00" p-id="8474"></path><path d="M709.9 720.86V697.1h-26.32v23.76c4.27-0.09 8.66-0.13 13.16-0.13 4.49 0 8.89 0.04 13.16 0.13z" fill="#EAEA00" p-id="8475"></path><path d="M696.74 699.06c-2.73 0-4.96 3.05-4.96 6.82 0 3.76 2.23 6.81 4.96 6.81 2.74 0 4.96-3.05 4.96-6.81 0-3.77-2.22-6.82-4.96-6.82z m0 12.44c-2.26 0-4.1-2.51-4.1-5.62 0-3.11 1.83-5.63 4.1-5.63s4.1 2.52 4.1 5.63c-0.01 3.11-1.84 5.62-4.1 5.62z" fill="#333333" p-id="8476"></path><path d="M711.65 723.36v-28.5c0-0.71-0.52-1.29-1.16-1.29h-27.51c-0.64 0-1.16 0.58-1.16 1.29v28.5c0.58-0.02 1.17-0.03 1.75-0.04v-26.54c0-0.91 0.82-1.64 1.83-1.64h22.67c1.01 0 1.83 0.74 1.83 1.64v26.54c0.59 0 1.17 0.02 1.75 0.04z" fill="#C3C6C3" p-id="8477"></path><path d="M718.54 723.83v-0.41c0-0.49-0.36-0.9-0.82-0.92-2.55-0.11-5.16-0.19-7.82-0.25-4.27-0.11-8.66-0.16-13.16-0.16s-8.9 0.05-13.16 0.16c-2.66 0.06-5.28 0.15-7.82 0.25-0.46 0.02-0.82 0.43-0.82 0.92v0.41c2.81-0.11 5.7-0.19 8.65-0.24 4.27-0.1 8.66-0.14 13.16-0.14s8.9 0.05 13.16 0.14c2.94 0.05 5.83 0.13 8.63 0.24z" fill="#FFFFB1" p-id="8478"></path><path d="M704.87 616.66c0 4.49-3.64 8.13-8.14 8.13a8.13 8.13 0 0 1-8.13-8.13c0-4.49 3.64-8.14 8.13-8.14 4.5 0 8.14 3.65 8.14 8.14z" fill="#434343" p-id="8479"></path><path d="M701.56 614.92h-2.29c-0.44 0-0.79-0.36-0.79-0.79v-2.29c0-0.44-0.35-0.79-0.79-0.79h-1.9c-0.44 0-0.79 0.35-0.79 0.79v2.29c0 0.44-0.35 0.79-0.79 0.79h-2.29c-0.44 0-0.79 0.35-0.79 0.79v1.9c0 0.44 0.36 0.79 0.79 0.79h2.29c0.44 0 0.79 0.35 0.79 0.79v2.29c0 0.44 0.36 0.79 0.79 0.79h1.9c0.44 0 0.79-0.36 0.79-0.79v-2.29c0-0.44 0.36-0.79 0.79-0.79h2.29c0.44 0 0.79-0.36 0.79-0.79v-1.9c0-0.44-0.35-0.79-0.79-0.79z m0.04 2.56c0 0.38-0.31 0.68-0.68 0.68h-1.98c-0.38 0-0.69 0.31-0.69 0.69v1.98c0 0.38-0.31 0.68-0.69 0.68h-1.64a0.68 0.68 0 0 1-0.68-0.68v-1.98c0-0.38-0.31-0.69-0.69-0.69h-1.98a0.69 0.69 0 0 1-0.69-0.68v-1.65c0-0.38 0.31-0.68 0.69-0.68h1.98c0.38 0 0.69-0.31 0.69-0.69v-1.98c0-0.38 0.31-0.68 0.68-0.68h1.64c0.38 0 0.69 0.31 0.69 0.68v1.98c0 0.38 0.31 0.69 0.69 0.69h1.98c0.38 0 0.68 0.31 0.68 0.68v1.65z" fill="#323232" p-id="8480"></path><path d="M701.6 615.83v1.65c0 0.38-0.31 0.68-0.68 0.68h-1.98c-0.38 0-0.69 0.31-0.69 0.69v1.98c0 0.38-0.31 0.68-0.69 0.68h-1.64a0.68 0.68 0 0 1-0.68-0.68v-1.98c0-0.38-0.31-0.69-0.69-0.69h-1.98a0.69 0.69 0 0 1-0.69-0.68v-1.65c0-0.38 0.31-0.68 0.69-0.68h1.98c0.38 0 0.69-0.31 0.69-0.69v-1.98c0-0.38 0.31-0.68 0.68-0.68h1.64c0.38 0 0.69 0.31 0.69 0.68v1.98c0 0.38 0.31 0.69 0.69 0.69h1.98c0.37 0 0.68 0.31 0.68 0.68z" fill="#2A2A2A" p-id="8481"></path><path d="M696.73 608.52c-4.49 0-8.13 3.64-8.13 8.14 0 4.49 3.64 8.13 8.13 8.13s8.14-3.64 8.14-8.13-3.65-8.14-8.14-8.14z m0 15.85c-4.25 0-7.71-3.45-7.71-7.71s3.45-7.71 7.71-7.71 7.71 3.45 7.71 7.71c0.01 4.25-3.45 7.71-7.71 7.71z" fill="#585858" p-id="8482"></path><path d="M704.87 766.9c0 4.49-3.64 8.13-8.14 8.13a8.13 8.13 0 0 1-8.13-8.13 8.134 8.134 0 1 1 16.27 0z" fill="#434343" p-id="8483"></path><path d="M701.56 765.16h-2.29c-0.44 0-0.79-0.36-0.79-0.79v-2.29c0-0.44-0.35-0.79-0.79-0.79h-1.9c-0.44 0-0.79 0.35-0.79 0.79v2.29c0 0.44-0.35 0.79-0.79 0.79h-2.29c-0.44 0-0.79 0.35-0.79 0.79v1.9c0 0.44 0.36 0.79 0.79 0.79h2.29c0.44 0 0.79 0.35 0.79 0.79v2.29c0 0.44 0.36 0.79 0.79 0.79h1.9c0.44 0 0.79-0.36 0.79-0.79v-2.29c0-0.44 0.36-0.79 0.79-0.79h2.29c0.44 0 0.79-0.36 0.79-0.79v-1.9c0-0.44-0.35-0.79-0.79-0.79z m0.04 2.56c0 0.38-0.31 0.68-0.68 0.68h-1.98c-0.38 0-0.69 0.31-0.69 0.69v1.98c0 0.38-0.31 0.68-0.69 0.68h-1.64a0.68 0.68 0 0 1-0.68-0.68v-1.98c0-0.38-0.31-0.69-0.69-0.69h-1.98a0.69 0.69 0 0 1-0.69-0.68v-1.65c0-0.38 0.31-0.68 0.69-0.68h1.98c0.38 0 0.69-0.31 0.69-0.69v-1.98c0-0.38 0.31-0.68 0.68-0.68h1.64c0.38 0 0.69 0.31 0.69 0.68v1.98c0 0.38 0.31 0.69 0.69 0.69h1.98c0.38 0 0.68 0.31 0.68 0.68v1.65z" fill="#323232" p-id="8484"></path><path d="M701.6 766.07v1.65c0 0.38-0.31 0.68-0.68 0.68h-1.98c-0.38 0-0.69 0.31-0.69 0.69v1.98c0 0.38-0.31 0.68-0.69 0.68h-1.64a0.68 0.68 0 0 1-0.68-0.68v-1.98c0-0.38-0.31-0.69-0.69-0.69h-1.98a0.69 0.69 0 0 1-0.69-0.68v-1.65c0-0.38 0.31-0.68 0.69-0.68h1.98c0.38 0 0.69-0.31 0.69-0.69v-1.98c0-0.38 0.31-0.68 0.68-0.68h1.64c0.38 0 0.69 0.31 0.69 0.68v1.98c0 0.38 0.31 0.69 0.69 0.69h1.98c0.37 0 0.68 0.3 0.68 0.68z" fill="#2A2A2A" p-id="8485"></path><path d="M696.73 758.76c-4.49 0-8.13 3.64-8.13 8.14 0 4.49 3.64 8.13 8.13 8.13s8.14-3.64 8.14-8.13c0-4.5-3.65-8.14-8.14-8.14z m0 15.84c-4.25 0-7.71-3.45-7.71-7.71s3.45-7.71 7.71-7.71 7.71 3.45 7.71 7.71c0.01 4.26-3.45 7.71-7.71 7.71z" fill="#585858" p-id="8486"></path><path d="M627.36 603.17h44.94v177.2h-44.94z" fill="#C3C6C3" p-id="8487"></path><path d="M627.36 630.57h44.94v122.41h-44.94z" fill="#FFFFFF" p-id="8488"></path><path d="M629.5 634.85h11.98v9.42H629.5z" fill="#D4D0DB" p-id="8489"></path><path d="M629.5 645.98h38.09v7.7H629.5z" fill="#F4E9AD" p-id="8490"></path><path d="M671.64 740.05v-0.6c-6.88 0.25-14.2 0.39-21.81 0.39-7.61 0-14.93-0.14-21.81-0.39v0.6c0 0.39 0.28 0.7 0.64 0.72 6.69 0.27 13.8 0.42 21.17 0.42s14.48-0.15 21.17-0.42c0.36-0.02 0.64-0.33 0.64-0.72z" fill="#EAEA00" p-id="8491"></path><path d="M671.64 739.45v-15.62c-2.81-0.11-5.7-0.19-8.65-0.24-4.27-0.1-8.66-0.14-13.16-0.14s-8.9 0.05-13.16 0.14c-2.95 0.06-5.84 0.14-8.65 0.24v15.62c6.88 0.25 14.2 0.39 21.81 0.39 7.61-0.01 14.94-0.14 21.81-0.39z" fill="#FFFF00" p-id="8492"></path><path d="M663 722.24v-1.39c-4.27-0.09-8.66-0.13-13.16-0.13s-8.9 0.04-13.16 0.13v1.39c4.27-0.09 8.66-0.13 13.16-0.13s8.89 0.04 13.16 0.13z" fill="#C3C300" p-id="8493"></path><path d="M663 697.1v-0.38c0-0.87-0.82-1.58-1.83-1.58H638.5c-1.01 0-1.83 0.71-1.83 1.58v0.38H663z" fill="#FFFF00" p-id="8494"></path><path d="M663 720.86V697.1h-26.32v23.76c4.27-0.09 8.66-0.13 13.16-0.13 4.49 0 8.89 0.04 13.16 0.13z" fill="#EAEA00" p-id="8495"></path><path d="M649.84 699.06c-2.73 0-4.96 3.05-4.96 6.82 0 3.76 2.23 6.81 4.96 6.81 2.74 0 4.96-3.05 4.96-6.81 0-3.77-2.22-6.82-4.96-6.82z m0 12.44c-2.26 0-4.1-2.51-4.1-5.62 0-3.11 1.83-5.63 4.1-5.63 2.26 0 4.1 2.52 4.1 5.63-0.01 3.11-1.84 5.62-4.1 5.62z" fill="#333333" p-id="8496"></path><path d="M664.75 723.36v-28.5c0-0.71-0.52-1.29-1.16-1.29h-27.51c-0.64 0-1.16 0.58-1.16 1.29v28.5c0.58-0.02 1.17-0.03 1.75-0.04v-26.54c0-0.91 0.82-1.64 1.83-1.64h22.67c1.01 0 1.83 0.74 1.83 1.64v26.54c0.59 0 1.17 0.02 1.75 0.04z" fill="#C3C6C3" p-id="8497"></path><path d="M671.64 723.83v-0.41c0-0.49-0.36-0.9-0.82-0.92-2.55-0.11-5.16-0.19-7.82-0.25-4.27-0.11-8.66-0.16-13.16-0.16s-8.9 0.05-13.16 0.16c-2.66 0.06-5.28 0.15-7.82 0.25-0.46 0.02-0.82 0.43-0.82 0.92v0.41c2.81-0.11 5.7-0.19 8.65-0.24 4.27-0.1 8.66-0.14 13.16-0.14s8.9 0.05 13.16 0.14c2.94 0.05 5.83 0.13 8.63 0.24z" fill="#FFFFB1" p-id="8498"></path><path d="M657.97 616.66c0 4.49-3.64 8.13-8.14 8.13a8.13 8.13 0 0 1-8.13-8.13c0-4.49 3.64-8.14 8.13-8.14 4.5 0 8.14 3.65 8.14 8.14z" fill="#434343" p-id="8499"></path><path d="M654.66 614.92h-2.29c-0.44 0-0.79-0.36-0.79-0.79v-2.29c0-0.44-0.35-0.79-0.79-0.79h-1.9c-0.44 0-0.79 0.35-0.79 0.79v2.29c0 0.44-0.35 0.79-0.79 0.79h-2.29c-0.44 0-0.79 0.35-0.79 0.79v1.9c0 0.44 0.36 0.79 0.79 0.79h2.29c0.44 0 0.79 0.35 0.79 0.79v2.29c0 0.44 0.36 0.79 0.79 0.79h1.9c0.44 0 0.79-0.36 0.79-0.79v-2.29c0-0.44 0.36-0.79 0.79-0.79h2.29c0.44 0 0.79-0.36 0.79-0.79v-1.9c0-0.44-0.35-0.79-0.79-0.79z m0.03 2.56c0 0.38-0.31 0.68-0.68 0.68h-1.98c-0.38 0-0.69 0.31-0.69 0.69v1.98c0 0.38-0.31 0.68-0.69 0.68h-1.64a0.68 0.68 0 0 1-0.68-0.68v-1.98c0-0.38-0.31-0.69-0.69-0.69h-1.98a0.69 0.69 0 0 1-0.69-0.68v-1.65c0-0.38 0.31-0.68 0.69-0.68h1.98c0.38 0 0.69-0.31 0.69-0.69v-1.98c0-0.38 0.31-0.68 0.68-0.68h1.64c0.38 0 0.69 0.31 0.69 0.68v1.98c0 0.38 0.31 0.69 0.69 0.69h1.98c0.38 0 0.68 0.31 0.68 0.68v1.65z" fill="#323232" p-id="8500"></path><path d="M654.69 615.83v1.65c0 0.38-0.31 0.68-0.68 0.68h-1.98c-0.38 0-0.69 0.31-0.69 0.69v1.98c0 0.38-0.31 0.68-0.69 0.68h-1.64a0.68 0.68 0 0 1-0.68-0.68v-1.98c0-0.38-0.31-0.69-0.69-0.69h-1.98a0.69 0.69 0 0 1-0.69-0.68v-1.65c0-0.38 0.31-0.68 0.69-0.68h1.98c0.38 0 0.69-0.31 0.69-0.69v-1.98c0-0.38 0.31-0.68 0.68-0.68h1.64c0.38 0 0.69 0.31 0.69 0.68v1.98c0 0.38 0.31 0.69 0.69 0.69h1.98c0.38 0 0.68 0.31 0.68 0.68z" fill="#2A2A2A" p-id="8501"></path><path d="M649.83 608.52c-4.49 0-8.13 3.64-8.13 8.14 0 4.49 3.64 8.13 8.13 8.13s8.14-3.64 8.14-8.13-3.65-8.14-8.14-8.14z m0 15.85c-4.25 0-7.71-3.45-7.71-7.71s3.45-7.71 7.71-7.71 7.71 3.45 7.71 7.71c0.01 4.25-3.45 7.71-7.71 7.71z" fill="#585858" p-id="8502"></path><path d="M657.97 766.9c0 4.49-3.64 8.13-8.14 8.13a8.13 8.13 0 0 1-8.13-8.13 8.134 8.134 0 1 1 16.27 0z" fill="#434343" p-id="8503"></path><path d="M654.66 765.16h-2.29c-0.44 0-0.79-0.36-0.79-0.79v-2.29c0-0.44-0.35-0.79-0.79-0.79h-1.9c-0.44 0-0.79 0.35-0.79 0.79v2.29c0 0.44-0.35 0.79-0.79 0.79h-2.29c-0.44 0-0.79 0.35-0.79 0.79v1.9c0 0.44 0.36 0.79 0.79 0.79h2.29c0.44 0 0.79 0.35 0.79 0.79v2.29c0 0.44 0.36 0.79 0.79 0.79h1.9c0.44 0 0.79-0.36 0.79-0.79v-2.29c0-0.44 0.36-0.79 0.79-0.79h2.29c0.44 0 0.79-0.36 0.79-0.79v-1.9c0-0.44-0.35-0.79-0.79-0.79z m0.03 2.56c0 0.38-0.31 0.68-0.68 0.68h-1.98c-0.38 0-0.69 0.31-0.69 0.69v1.98c0 0.38-0.31 0.68-0.69 0.68h-1.64a0.68 0.68 0 0 1-0.68-0.68v-1.98c0-0.38-0.31-0.69-0.69-0.69h-1.98a0.69 0.69 0 0 1-0.69-0.68v-1.65c0-0.38 0.31-0.68 0.69-0.68h1.98c0.38 0 0.69-0.31 0.69-0.69v-1.98c0-0.38 0.31-0.68 0.68-0.68h1.64c0.38 0 0.69 0.31 0.69 0.68v1.98c0 0.38 0.31 0.69 0.69 0.69h1.98c0.38 0 0.68 0.31 0.68 0.68v1.65z" fill="#323232" p-id="8504"></path><path d="M654.69 766.07v1.65c0 0.38-0.31 0.68-0.68 0.68h-1.98c-0.38 0-0.69 0.31-0.69 0.69v1.98c0 0.38-0.31 0.68-0.69 0.68h-1.64a0.68 0.68 0 0 1-0.68-0.68v-1.98c0-0.38-0.31-0.69-0.69-0.69h-1.98a0.69 0.69 0 0 1-0.69-0.68v-1.65c0-0.38 0.31-0.68 0.69-0.68h1.98c0.38 0 0.69-0.31 0.69-0.69v-1.98c0-0.38 0.31-0.68 0.68-0.68h1.64c0.38 0 0.69 0.31 0.69 0.68v1.98c0 0.38 0.31 0.69 0.69 0.69h1.98c0.38 0 0.68 0.3 0.68 0.68z" fill="#2A2A2A" p-id="8505"></path><path d="M649.83 758.76c-4.49 0-8.13 3.64-8.13 8.14 0 4.49 3.64 8.13 8.13 8.13s8.14-3.64 8.14-8.13c0-4.5-3.65-8.14-8.14-8.14z m0 15.84c-4.25 0-7.71-3.45-7.71-7.71s3.45-7.71 7.71-7.71 7.71 3.45 7.71 7.71c0.01 4.26-3.45 7.71-7.71 7.71z" fill="#585858" p-id="8506"></path><path d="M418.71 603.17h44.94v177.2h-44.94z" fill="#C3C6C3" p-id="8507"></path><path d="M418.71 630.57h44.94v122.41h-44.94z" fill="#FFFFFF" p-id="8508"></path><path d="M420.85 634.85h11.98v9.42h-11.98z" fill="#D4D0DB" p-id="8509"></path><path d="M420.85 645.98h38.09v7.7h-38.09z" fill="#F4E9AD" p-id="8510"></path><path d="M462.99 740.05v-0.6c-6.88 0.25-14.2 0.39-21.81 0.39s-14.93-0.14-21.81-0.39v0.6c0 0.39 0.28 0.7 0.64 0.72 6.69 0.27 13.8 0.42 21.17 0.42 7.37 0 14.48-0.15 21.17-0.42 0.36-0.02 0.64-0.33 0.64-0.72z" fill="#EAEA00" p-id="8511"></path><path d="M462.99 739.45v-15.62c-2.81-0.11-5.7-0.19-8.65-0.24-4.27-0.1-8.66-0.14-13.16-0.14s-8.9 0.05-13.16 0.14c-2.95 0.06-5.84 0.14-8.65 0.24v15.62c6.88 0.25 14.2 0.39 21.81 0.39s14.93-0.14 21.81-0.39z" fill="#FFFF00" p-id="8512"></path><path d="M454.34 722.24v-1.39c-4.27-0.09-8.66-0.13-13.16-0.13s-8.9 0.04-13.16 0.13v1.39c4.27-0.09 8.66-0.13 13.16-0.13s8.89 0.04 13.16 0.13z" fill="#C3C300" p-id="8513"></path><path d="M454.34 697.1v-0.38c0-0.87-0.82-1.58-1.83-1.58h-22.67c-1.01 0-1.83 0.71-1.83 1.58v0.38h26.33z" fill="#FFFF00" p-id="8514"></path><path d="M454.34 720.86V697.1h-26.32v23.76c4.27-0.09 8.66-0.13 13.16-0.13s8.89 0.04 13.16 0.13z" fill="#EAEA00" p-id="8515"></path><path d="M441.18 699.06c-2.73 0-4.96 3.05-4.96 6.82 0 3.76 2.23 6.81 4.96 6.81 2.74 0 4.96-3.05 4.96-6.81 0-3.77-2.22-6.82-4.96-6.82z m0 12.44c-2.26 0-4.1-2.51-4.1-5.62 0-3.11 1.83-5.63 4.1-5.63s4.1 2.52 4.1 5.63-1.84 5.62-4.1 5.62z" fill="#333333" p-id="8516"></path><path d="M456.09 723.36v-28.5c0-0.71-0.52-1.29-1.16-1.29h-27.51c-0.64 0-1.16 0.58-1.16 1.29v28.5c0.58-0.02 1.17-0.03 1.75-0.04v-26.54c0-0.91 0.82-1.64 1.83-1.64h22.67c1.01 0 1.83 0.74 1.83 1.64v26.54c0.59 0 1.17 0.02 1.75 0.04z" fill="#C3C6C3" p-id="8517"></path><path d="M462.99 723.83v-0.41c0-0.49-0.36-0.9-0.82-0.92-2.55-0.11-5.16-0.19-7.82-0.25-4.27-0.11-8.66-0.16-13.16-0.16s-8.9 0.05-13.16 0.16c-2.66 0.06-5.28 0.15-7.82 0.25-0.46 0.02-0.82 0.43-0.82 0.92v0.41c2.81-0.11 5.7-0.19 8.65-0.24 4.27-0.1 8.66-0.14 13.16-0.14s8.9 0.05 13.16 0.14c2.93 0.05 5.82 0.13 8.63 0.24z" fill="#FFFFB1" p-id="8518"></path><path d="M449.31 616.66c0 4.49-3.64 8.13-8.14 8.13a8.13 8.13 0 0 1-8.13-8.13c0-4.49 3.64-8.14 8.13-8.14 4.5 0 8.14 3.65 8.14 8.14z" fill="#434343" p-id="8519"></path><path d="M446 614.92h-2.29c-0.44 0-0.79-0.36-0.79-0.79v-2.29c0-0.44-0.35-0.79-0.79-0.79h-1.9c-0.44 0-0.79 0.35-0.79 0.79v2.29c0 0.44-0.35 0.79-0.79 0.79h-2.29c-0.44 0-0.79 0.35-0.79 0.79v1.9c0 0.44 0.36 0.79 0.79 0.79h2.29c0.44 0 0.79 0.35 0.79 0.79v2.29c0 0.44 0.36 0.79 0.79 0.79h1.9c0.44 0 0.79-0.36 0.79-0.79v-2.29c0-0.44 0.36-0.79 0.79-0.79H446c0.44 0 0.79-0.36 0.79-0.79v-1.9c0-0.44-0.35-0.79-0.79-0.79z m0.04 2.56c0 0.38-0.31 0.68-0.68 0.68h-1.98c-0.38 0-0.69 0.31-0.69 0.69v1.98c0 0.38-0.31 0.68-0.69 0.68h-1.64a0.68 0.68 0 0 1-0.68-0.68v-1.98c0-0.38-0.31-0.69-0.69-0.69H437a0.69 0.69 0 0 1-0.69-0.68v-1.65c0-0.38 0.31-0.68 0.69-0.68h1.98c0.38 0 0.69-0.31 0.69-0.69v-1.98c0-0.38 0.31-0.68 0.68-0.68H442c0.38 0 0.69 0.31 0.69 0.68v1.98c0 0.38 0.31 0.69 0.69 0.69h1.98c0.38 0 0.68 0.31 0.68 0.68v1.65z" fill="#323232" p-id="8520"></path><path d="M446.04 615.83v1.65c0 0.38-0.31 0.68-0.68 0.68h-1.98c-0.38 0-0.69 0.31-0.69 0.69v1.98c0 0.38-0.31 0.68-0.69 0.68h-1.64a0.68 0.68 0 0 1-0.68-0.68v-1.98c0-0.38-0.31-0.69-0.69-0.69H437a0.69 0.69 0 0 1-0.69-0.68v-1.65c0-0.38 0.31-0.68 0.69-0.68h1.98c0.38 0 0.69-0.31 0.69-0.69v-1.98c0-0.38 0.31-0.68 0.68-0.68H442c0.38 0 0.69 0.31 0.69 0.68v1.98c0 0.38 0.31 0.69 0.69 0.69h1.98c0.37 0 0.68 0.31 0.68 0.68z" fill="#2A2A2A" p-id="8521"></path><path d="M441.18 608.52c-4.49 0-8.13 3.64-8.13 8.14a8.13 8.13 0 0 0 8.13 8.13c4.49 0 8.14-3.64 8.14-8.13-0.01-4.49-3.65-8.14-8.14-8.14z m0 15.85c-4.25 0-7.71-3.45-7.71-7.71s3.45-7.71 7.71-7.71 7.71 3.45 7.71 7.71c0 4.25-3.45 7.71-7.71 7.71z" fill="#585858" p-id="8522"></path><path d="M449.31 766.9c0 4.49-3.64 8.13-8.14 8.13a8.13 8.13 0 0 1-8.13-8.13 8.134 8.134 0 1 1 16.27 0z" fill="#434343" p-id="8523"></path><path d="M446 765.16h-2.29c-0.44 0-0.79-0.36-0.79-0.79v-2.29c0-0.44-0.35-0.79-0.79-0.79h-1.9c-0.44 0-0.79 0.35-0.79 0.79v2.29c0 0.44-0.35 0.79-0.79 0.79h-2.29c-0.44 0-0.79 0.35-0.79 0.79v1.9c0 0.44 0.36 0.79 0.79 0.79h2.29c0.44 0 0.79 0.35 0.79 0.79v2.29c0 0.44 0.36 0.79 0.79 0.79h1.9c0.44 0 0.79-0.36 0.79-0.79v-2.29c0-0.44 0.36-0.79 0.79-0.79H446c0.44 0 0.79-0.36 0.79-0.79v-1.9c0-0.44-0.35-0.79-0.79-0.79z m0.04 2.56c0 0.38-0.31 0.68-0.68 0.68h-1.98c-0.38 0-0.69 0.31-0.69 0.69v1.98c0 0.38-0.31 0.68-0.69 0.68h-1.64a0.68 0.68 0 0 1-0.68-0.68v-1.98c0-0.38-0.31-0.69-0.69-0.69H437a0.69 0.69 0 0 1-0.69-0.68v-1.65c0-0.38 0.31-0.68 0.69-0.68h1.98c0.38 0 0.69-0.31 0.69-0.69v-1.98c0-0.38 0.31-0.68 0.68-0.68H442c0.38 0 0.69 0.31 0.69 0.68v1.98c0 0.38 0.31 0.69 0.69 0.69h1.98c0.38 0 0.68 0.31 0.68 0.68v1.65z" fill="#323232" p-id="8524"></path><path d="M446.04 766.07v1.65c0 0.38-0.31 0.68-0.68 0.68h-1.98c-0.38 0-0.69 0.31-0.69 0.69v1.98c0 0.38-0.31 0.68-0.69 0.68h-1.64a0.68 0.68 0 0 1-0.68-0.68v-1.98c0-0.38-0.31-0.69-0.69-0.69H437a0.69 0.69 0 0 1-0.69-0.68v-1.65c0-0.38 0.31-0.68 0.69-0.68h1.98c0.38 0 0.69-0.31 0.69-0.69v-1.98c0-0.38 0.31-0.68 0.68-0.68H442c0.38 0 0.69 0.31 0.69 0.68v1.98c0 0.38 0.31 0.69 0.69 0.69h1.98c0.37 0 0.68 0.3 0.68 0.68z" fill="#2A2A2A" p-id="8525"></path><path d="M441.18 758.76c-4.49 0-8.13 3.64-8.13 8.14a8.13 8.13 0 0 0 8.13 8.13c4.49 0 8.14-3.64 8.14-8.13-0.01-4.5-3.65-8.14-8.14-8.14z m0 15.84c-4.25 0-7.71-3.45-7.71-7.71s3.45-7.71 7.71-7.71 7.71 3.45 7.71 7.71-3.45 7.71-7.71 7.71z" fill="#585858" p-id="8526"></path><path d="M535.16 634.85h11.98v9.42h-11.98z" fill="#D4D0DB" p-id="8527"></path><path d="M508.59 603.17h44.94v177.2h-44.94z" fill="#C3C6C3" p-id="8528"></path><path d="M508.59 630.57h44.94v122.41h-44.94z" fill="#FFFFFF" p-id="8529"></path><path d="M510.73 634.85h11.98v9.42h-11.98z" fill="#D4D0DB" p-id="8530"></path><path d="M510.73 645.98h38.09v7.7h-38.09z" fill="#F4E9AD" p-id="8531"></path><path d="M552.87 740.05v-0.6c-6.88 0.25-14.2 0.39-21.81 0.39-7.61 0-14.93-0.14-21.81-0.39v0.6c0 0.39 0.28 0.7 0.64 0.72 6.69 0.27 13.8 0.42 21.17 0.42s14.48-0.15 21.17-0.42c0.36-0.02 0.64-0.33 0.64-0.72z" fill="#EAEA00" p-id="8532"></path><path d="M552.87 739.45v-15.62c-2.81-0.11-5.7-0.19-8.65-0.24-4.27-0.1-8.66-0.14-13.16-0.14s-8.9 0.05-13.16 0.14c-2.95 0.06-5.84 0.14-8.65 0.24v15.62c6.88 0.25 14.2 0.39 21.81 0.39 7.6-0.01 14.93-0.14 21.81-0.39z" fill="#FFFF00" p-id="8533"></path><path d="M544.22 722.24v-1.39c-4.27-0.09-8.66-0.13-13.16-0.13s-8.9 0.04-13.16 0.13v1.39c4.27-0.09 8.66-0.13 13.16-0.13s8.89 0.04 13.16 0.13z" fill="#C3C300" p-id="8534"></path><path d="M544.22 697.1v-0.38c0-0.87-0.82-1.58-1.83-1.58h-22.67c-1.01 0-1.83 0.71-1.83 1.58v0.38h26.33z" fill="#FFFF00" p-id="8535"></path><path d="M544.22 720.86V697.1H517.9v23.76c4.27-0.09 8.66-0.13 13.16-0.13s8.89 0.04 13.16 0.13z" fill="#EAEA00" p-id="8536"></path><path d="M531.06 699.06c-2.73 0-4.96 3.05-4.96 6.82 0 3.76 2.23 6.81 4.96 6.81 2.74 0 4.96-3.05 4.96-6.81 0-3.77-2.22-6.82-4.96-6.82z m0 12.44c-2.26 0-4.1-2.51-4.1-5.62 0-3.11 1.83-5.63 4.1-5.63 2.26 0 4.1 2.52 4.1 5.63s-1.84 5.62-4.1 5.62z" fill="#333333" p-id="8537"></path><path d="M545.97 723.36v-28.5c0-0.71-0.52-1.29-1.16-1.29H517.3c-0.64 0-1.16 0.58-1.16 1.29v28.5c0.58-0.02 1.17-0.03 1.75-0.04v-26.54c0-0.91 0.82-1.64 1.83-1.64h22.67c1.01 0 1.83 0.74 1.83 1.64v26.54c0.59 0 1.17 0.02 1.75 0.04z" fill="#C3C6C3" p-id="8538"></path><path d="M552.87 723.83v-0.41c0-0.49-0.36-0.9-0.82-0.92-2.55-0.11-5.16-0.19-7.82-0.25-4.27-0.11-8.66-0.16-13.16-0.16s-8.9 0.05-13.16 0.16c-2.66 0.06-5.28 0.15-7.82 0.25-0.46 0.02-0.82 0.43-0.82 0.92v0.41c2.81-0.11 5.7-0.19 8.65-0.24 4.27-0.1 8.66-0.14 13.16-0.14s8.9 0.05 13.16 0.14c2.93 0.05 5.82 0.13 8.63 0.24z" fill="#FFFFB1" p-id="8539"></path><path d="M539.19 616.66c0 4.49-3.64 8.13-8.14 8.13a8.13 8.13 0 0 1-8.13-8.13c0-4.49 3.64-8.14 8.13-8.14 4.5 0 8.14 3.65 8.14 8.14z" fill="#434343" p-id="8540"></path><path d="M535.88 614.92h-2.29c-0.44 0-0.79-0.36-0.79-0.79v-2.29c0-0.44-0.35-0.79-0.79-0.79h-1.9c-0.44 0-0.79 0.35-0.79 0.79v2.29c0 0.44-0.35 0.79-0.79 0.79h-2.29c-0.44 0-0.79 0.35-0.79 0.79v1.9c0 0.44 0.36 0.79 0.79 0.79h2.29c0.44 0 0.79 0.35 0.79 0.79v2.29c0 0.44 0.36 0.79 0.79 0.79h1.9c0.44 0 0.79-0.36 0.79-0.79v-2.29c0-0.44 0.36-0.79 0.79-0.79h2.29c0.44 0 0.79-0.36 0.79-0.79v-1.9c0-0.44-0.35-0.79-0.79-0.79z m0.04 2.56c0 0.38-0.31 0.68-0.68 0.68h-1.98c-0.38 0-0.69 0.31-0.69 0.69v1.98c0 0.38-0.31 0.68-0.69 0.68h-1.64a0.68 0.68 0 0 1-0.68-0.68v-1.98c0-0.38-0.31-0.69-0.69-0.69h-1.98a0.69 0.69 0 0 1-0.69-0.68v-1.65c0-0.38 0.31-0.68 0.69-0.68h1.98c0.38 0 0.69-0.31 0.69-0.69v-1.98c0-0.38 0.31-0.68 0.68-0.68h1.64c0.38 0 0.69 0.31 0.69 0.68v1.98c0 0.38 0.31 0.69 0.69 0.69h1.98c0.38 0 0.68 0.31 0.68 0.68v1.65z" fill="#323232" p-id="8541"></path><path d="M535.92 615.83v1.65c0 0.38-0.31 0.68-0.68 0.68h-1.98c-0.38 0-0.69 0.31-0.69 0.69v1.98c0 0.38-0.31 0.68-0.69 0.68h-1.64a0.68 0.68 0 0 1-0.68-0.68v-1.98c0-0.38-0.31-0.69-0.69-0.69h-1.98a0.69 0.69 0 0 1-0.69-0.68v-1.65c0-0.38 0.31-0.68 0.69-0.68h1.98c0.38 0 0.69-0.31 0.69-0.69v-1.98c0-0.38 0.31-0.68 0.68-0.68h1.64c0.38 0 0.69 0.31 0.69 0.68v1.98c0 0.38 0.31 0.69 0.69 0.69h1.98c0.37 0 0.68 0.31 0.68 0.68z" fill="#2A2A2A" p-id="8542"></path><path d="M531.06 608.52c-4.49 0-8.13 3.64-8.13 8.14 0 4.49 3.64 8.13 8.13 8.13s8.14-3.64 8.14-8.13c-0.01-4.49-3.65-8.14-8.14-8.14z m0 15.85c-4.25 0-7.71-3.45-7.71-7.71s3.45-7.71 7.71-7.71 7.71 3.45 7.71 7.71c0 4.25-3.45 7.71-7.71 7.71z" fill="#585858" p-id="8543"></path><path d="M539.19 766.9c0 4.49-3.64 8.13-8.14 8.13a8.13 8.13 0 0 1-8.13-8.13 8.134 8.134 0 1 1 16.27 0z" fill="#434343" p-id="8544"></path><path d="M535.88 765.16h-2.29c-0.44 0-0.79-0.36-0.79-0.79v-2.29c0-0.44-0.35-0.79-0.79-0.79h-1.9c-0.44 0-0.79 0.35-0.79 0.79v2.29c0 0.44-0.35 0.79-0.79 0.79h-2.29c-0.44 0-0.79 0.35-0.79 0.79v1.9c0 0.44 0.36 0.79 0.79 0.79h2.29c0.44 0 0.79 0.35 0.79 0.79v2.29c0 0.44 0.36 0.79 0.79 0.79h1.9c0.44 0 0.79-0.36 0.79-0.79v-2.29c0-0.44 0.36-0.79 0.79-0.79h2.29c0.44 0 0.79-0.36 0.79-0.79v-1.9c0-0.44-0.35-0.79-0.79-0.79z m0.04 2.56c0 0.38-0.31 0.68-0.68 0.68h-1.98c-0.38 0-0.69 0.31-0.69 0.69v1.98c0 0.38-0.31 0.68-0.69 0.68h-1.64a0.68 0.68 0 0 1-0.68-0.68v-1.98c0-0.38-0.31-0.69-0.69-0.69h-1.98a0.69 0.69 0 0 1-0.69-0.68v-1.65c0-0.38 0.31-0.68 0.69-0.68h1.98c0.38 0 0.69-0.31 0.69-0.69v-1.98c0-0.38 0.31-0.68 0.68-0.68h1.64c0.38 0 0.69 0.31 0.69 0.68v1.98c0 0.38 0.31 0.69 0.69 0.69h1.98c0.38 0 0.68 0.31 0.68 0.68v1.65z" fill="#323232" p-id="8545"></path><path d="M535.92 766.07v1.65c0 0.38-0.31 0.68-0.68 0.68h-1.98c-0.38 0-0.69 0.31-0.69 0.69v1.98c0 0.38-0.31 0.68-0.69 0.68h-1.64a0.68 0.68 0 0 1-0.68-0.68v-1.98c0-0.38-0.31-0.69-0.69-0.69h-1.98a0.69 0.69 0 0 1-0.69-0.68v-1.65c0-0.38 0.31-0.68 0.69-0.68h1.98c0.38 0 0.69-0.31 0.69-0.69v-1.98c0-0.38 0.31-0.68 0.68-0.68h1.64c0.38 0 0.69 0.31 0.69 0.68v1.98c0 0.38 0.31 0.69 0.69 0.69h1.98c0.37 0 0.68 0.3 0.68 0.68z" fill="#2A2A2A" p-id="8546"></path><path d="M531.06 758.76c-4.49 0-8.13 3.64-8.13 8.14 0 4.49 3.64 8.13 8.13 8.13s8.14-3.64 8.14-8.13c-0.01-4.5-3.65-8.14-8.14-8.14z m0 15.84c-4.25 0-7.71-3.45-7.71-7.71s3.45-7.71 7.71-7.71 7.71 3.45 7.71 7.71-3.45 7.71-7.71 7.71z" fill="#585858" p-id="8547"></path><path d="M463.65 603.17h44.94v177.2h-44.94z" fill="#C3C6C3" p-id="8548"></path><path d="M463.65 630.57h44.94v122.41h-44.94z" fill="#FFFFFF" p-id="8549"></path><path d="M465.79 634.85h11.98v9.42h-11.98z" fill="#D4D0DB" p-id="8550"></path><path d="M465.79 645.98h38.09v7.7h-38.09z" fill="#F4E9AD" p-id="8551"></path><path d="M507.93 740.05v-0.6c-6.88 0.25-14.2 0.39-21.81 0.39s-14.93-0.14-21.81-0.39v0.6c0 0.39 0.28 0.7 0.64 0.72 6.69 0.27 13.8 0.42 21.17 0.42 7.37 0 14.48-0.15 21.17-0.42 0.35-0.02 0.64-0.33 0.64-0.72z" fill="#EAEA00" p-id="8552"></path><path d="M507.93 739.45v-15.62c-2.81-0.11-5.7-0.19-8.65-0.24-4.27-0.1-8.66-0.14-13.16-0.14s-8.9 0.05-13.16 0.14c-2.95 0.06-5.84 0.14-8.65 0.24v15.62c6.88 0.25 14.2 0.39 21.81 0.39s14.93-0.14 21.81-0.39z" fill="#FFFF00" p-id="8553"></path><path d="M499.28 722.24v-1.39c-4.27-0.09-8.66-0.13-13.16-0.13s-8.9 0.04-13.16 0.13v1.39c4.27-0.09 8.66-0.13 13.16-0.13s8.89 0.04 13.16 0.13z" fill="#C3C300" p-id="8554"></path><path d="M499.28 697.1v-0.38c0-0.87-0.82-1.58-1.83-1.58h-22.67c-1.01 0-1.83 0.71-1.83 1.58v0.38h26.33z" fill="#FFFF00" p-id="8555"></path><path d="M499.28 720.86V697.1h-26.32v23.76c4.27-0.09 8.66-0.13 13.16-0.13s8.89 0.04 13.16 0.13z" fill="#EAEA00" p-id="8556"></path><path d="M486.12 699.06c-2.73 0-4.96 3.05-4.96 6.82 0 3.76 2.23 6.81 4.96 6.81 2.74 0 4.96-3.05 4.96-6.81 0-3.77-2.22-6.82-4.96-6.82z m0 12.44c-2.26 0-4.1-2.51-4.1-5.62 0-3.11 1.83-5.63 4.1-5.63s4.1 2.52 4.1 5.63c-0.01 3.11-1.84 5.62-4.1 5.62z" fill="#333333" p-id="8557"></path><path d="M501.03 723.36v-28.5c0-0.71-0.52-1.29-1.16-1.29h-27.51c-0.64 0-1.16 0.58-1.16 1.29v28.5c0.58-0.02 1.17-0.03 1.75-0.04v-26.54c0-0.91 0.82-1.64 1.83-1.64h22.67c1.01 0 1.83 0.74 1.83 1.64v26.54c0.59 0 1.17 0.02 1.75 0.04z" fill="#C3C6C3" p-id="8558"></path><path d="M507.93 723.83v-0.41c0-0.49-0.36-0.9-0.82-0.92-2.55-0.11-5.16-0.19-7.82-0.25-4.27-0.11-8.66-0.16-13.16-0.16s-8.9 0.05-13.16 0.16c-2.66 0.06-5.28 0.15-7.82 0.25-0.46 0.02-0.82 0.43-0.82 0.92v0.41c2.81-0.11 5.7-0.19 8.65-0.24 4.27-0.1 8.66-0.14 13.16-0.14s8.9 0.05 13.16 0.14c2.93 0.05 5.82 0.13 8.63 0.24z" fill="#FFFFB1" p-id="8559"></path><path d="M494.25 616.66c0 4.49-3.64 8.13-8.14 8.13a8.13 8.13 0 0 1-8.13-8.13c0-4.49 3.64-8.14 8.13-8.14 4.5 0 8.14 3.65 8.14 8.14z" fill="#434343" p-id="8560"></path><path d="M490.94 614.92h-2.29c-0.44 0-0.79-0.36-0.79-0.79v-2.29c0-0.44-0.35-0.79-0.79-0.79h-1.9c-0.44 0-0.79 0.35-0.79 0.79v2.29c0 0.44-0.35 0.79-0.79 0.79h-2.29c-0.44 0-0.79 0.35-0.79 0.79v1.9c0 0.44 0.36 0.79 0.79 0.79h2.29c0.44 0 0.79 0.35 0.79 0.79v2.29c0 0.44 0.36 0.79 0.79 0.79h1.9c0.44 0 0.79-0.36 0.79-0.79v-2.29c0-0.44 0.36-0.79 0.79-0.79h2.29c0.44 0 0.79-0.36 0.79-0.79v-1.9c0-0.44-0.35-0.79-0.79-0.79z m0.04 2.56c0 0.38-0.31 0.68-0.68 0.68h-1.98c-0.38 0-0.69 0.31-0.69 0.69v1.98c0 0.38-0.31 0.68-0.69 0.68h-1.64a0.68 0.68 0 0 1-0.68-0.68v-1.98c0-0.38-0.31-0.69-0.69-0.69h-1.98a0.69 0.69 0 0 1-0.69-0.68v-1.65c0-0.38 0.31-0.68 0.69-0.68h1.98c0.38 0 0.69-0.31 0.69-0.69v-1.98c0-0.38 0.31-0.68 0.68-0.68h1.64c0.38 0 0.69 0.31 0.69 0.68v1.98c0 0.38 0.31 0.69 0.69 0.69h1.98c0.38 0 0.68 0.31 0.68 0.68v1.65z" fill="#323232" p-id="8561"></path><path d="M490.98 615.83v1.65c0 0.38-0.31 0.68-0.68 0.68h-1.98c-0.38 0-0.69 0.31-0.69 0.69v1.98c0 0.38-0.31 0.68-0.69 0.68h-1.64a0.68 0.68 0 0 1-0.68-0.68v-1.98c0-0.38-0.31-0.69-0.69-0.69h-1.98a0.69 0.69 0 0 1-0.69-0.68v-1.65c0-0.38 0.31-0.68 0.69-0.68h1.98c0.38 0 0.69-0.31 0.69-0.69v-1.98c0-0.38 0.31-0.68 0.68-0.68h1.64c0.38 0 0.69 0.31 0.69 0.68v1.98c0 0.38 0.31 0.69 0.69 0.69h1.98c0.37 0 0.68 0.31 0.68 0.68z" fill="#2A2A2A" p-id="8562"></path><path d="M486.11 608.52c-4.49 0-8.13 3.64-8.13 8.14a8.13 8.13 0 0 0 8.13 8.13c4.49 0 8.14-3.64 8.14-8.13a8.14 8.14 0 0 0-8.14-8.14z m0 15.85c-4.25 0-7.71-3.45-7.71-7.71s3.45-7.71 7.71-7.71 7.71 3.45 7.71 7.71c0.01 4.25-3.45 7.71-7.71 7.71z" fill="#585858" p-id="8563"></path><path d="M494.25 766.9c0 4.49-3.64 8.13-8.14 8.13a8.13 8.13 0 0 1-8.13-8.13 8.134 8.134 0 1 1 16.27 0z" fill="#434343" p-id="8564"></path><path d="M490.94 765.16h-2.29c-0.44 0-0.79-0.36-0.79-0.79v-2.29c0-0.44-0.35-0.79-0.79-0.79h-1.9c-0.44 0-0.79 0.35-0.79 0.79v2.29c0 0.44-0.35 0.79-0.79 0.79h-2.29c-0.44 0-0.79 0.35-0.79 0.79v1.9c0 0.44 0.36 0.79 0.79 0.79h2.29c0.44 0 0.79 0.35 0.79 0.79v2.29c0 0.44 0.36 0.79 0.79 0.79h1.9c0.44 0 0.79-0.36 0.79-0.79v-2.29c0-0.44 0.36-0.79 0.79-0.79h2.29c0.44 0 0.79-0.36 0.79-0.79v-1.9c0-0.44-0.35-0.79-0.79-0.79z m0.04 2.56c0 0.38-0.31 0.68-0.68 0.68h-1.98c-0.38 0-0.69 0.31-0.69 0.69v1.98c0 0.38-0.31 0.68-0.69 0.68h-1.64a0.68 0.68 0 0 1-0.68-0.68v-1.98c0-0.38-0.31-0.69-0.69-0.69h-1.98a0.69 0.69 0 0 1-0.69-0.68v-1.65c0-0.38 0.31-0.68 0.69-0.68h1.98c0.38 0 0.69-0.31 0.69-0.69v-1.98c0-0.38 0.31-0.68 0.68-0.68h1.64c0.38 0 0.69 0.31 0.69 0.68v1.98c0 0.38 0.31 0.69 0.69 0.69h1.98c0.38 0 0.68 0.31 0.68 0.68v1.65z" fill="#323232" p-id="8565"></path><path d="M490.98 766.07v1.65c0 0.38-0.31 0.68-0.68 0.68h-1.98c-0.38 0-0.69 0.31-0.69 0.69v1.98c0 0.38-0.31 0.68-0.69 0.68h-1.64a0.68 0.68 0 0 1-0.68-0.68v-1.98c0-0.38-0.31-0.69-0.69-0.69h-1.98a0.69 0.69 0 0 1-0.69-0.68v-1.65c0-0.38 0.31-0.68 0.69-0.68h1.98c0.38 0 0.69-0.31 0.69-0.69v-1.98c0-0.38 0.31-0.68 0.68-0.68h1.64c0.38 0 0.69 0.31 0.69 0.68v1.98c0 0.38 0.31 0.69 0.69 0.69h1.98c0.37 0 0.68 0.3 0.68 0.68z" fill="#2A2A2A" p-id="8566"></path><path d="M486.11 758.76c-4.49 0-8.13 3.64-8.13 8.14a8.13 8.13 0 0 0 8.13 8.13 8.134 8.134 0 1 0 0-16.27z m0 15.84c-4.25 0-7.71-3.45-7.71-7.71s3.45-7.71 7.71-7.71 7.71 3.45 7.71 7.71c0.01 4.26-3.45 7.71-7.71 7.71z" fill="#585858" p-id="8567"></path><path d="M420.85 645.98h127.97v7.7H420.85z" fill="#F4E9AD" p-id="8568"></path><path d="M685.53 254.66v6.68c0-6.12-2.48-11.65-6.5-15.67-4-4-9.55-6.5-15.67-6.5H424.52c-6.12 0-11.67 2.49-15.67 6.5-4.02 4.02-6.5 9.55-6.5 15.67v-6.68c0-6.12 2.48-11.67 6.5-15.69 4-4 9.55-6.48 15.67-6.48h238.84c6.12 0 11.67 2.48 15.67 6.48 4.02 4.03 6.5 9.57 6.5 15.69z" fill="#BAC1C1" p-id="8569"></path><path d="M685.53 310.88v8.47c0 6.12-2.48 11.65-6.5 15.67-4 4-9.55 6.5-15.67 6.5H424.52c-6.12 0-11.67-2.49-15.67-6.5-4.02-4.02-6.5-9.55-6.5-15.67v-8.47c0 6.12 2.48 11.65 6.5 15.67 4 4 9.55 6.5 15.67 6.5h238.84c6.12 0 11.67-2.49 15.67-6.5 4.02-4.02 6.5-9.55 6.5-15.67z" fill="#97A0A0" p-id="8570"></path><path d="M685.53 261.34v49.53c0 6.12-2.48 11.65-6.5 15.67-4 4-9.55 6.5-15.67 6.5H424.52c-6.12 0-11.67-2.49-15.67-6.5-4.02-4.02-6.5-9.55-6.5-15.67v-49.53c0-6.12 2.48-11.65 6.5-15.67 4-4 9.55-6.5 15.67-6.5h238.84c6.12 0 11.67 2.49 15.67 6.5 4.02 4.02 6.5 9.55 6.5 15.67z" fill="#A5AFAF" p-id="8571"></path><path d="M416.4 247.83v78.32c0 1.11 0.9 2.02 2.02 2.02h251.05c1.11 0 2.02-0.9 2.02-2.02v-78.32c0-1.11-0.9-2.02-2.02-2.02H418.42c-1.12 0.01-2.02 0.91-2.02 2.02z m7.87 72.23v-66.12c0-1.11 0.9-2.02 2.02-2.02h235.3c1.11 0 2.02 0.9 2.02 2.02v66.12c0 1.11-0.9 2.02-2.02 2.02h-235.3c-1.11-0.01-2.02-0.91-2.02-2.02z" fill="#FFFFFF" p-id="8572"></path><path d="M669.3 247.75l-7.74 5.82H426.32l-7.74-5.82z" fill="#B9B9B9" p-id="8573"></path><path d="M669.3 247.75v78.49l-7.74-5.81v-66.86zM426.32 253.57v66.86l-7.74 5.81v-78.49z" fill="#C7C7C7" p-id="8574"></path><path d="M669.3 326.24H418.58l7.74-5.82h235.25z" fill="#DDDDDD" p-id="8575"></path><path d="M426.32 253.57h235.25v66.86H426.32z" fill="#F2F2F2" p-id="8576"></path><path d="M435.04 274.72h14.27v24.55h-14.27z" fill="#273532" p-id="8577"></path><path d="M439.16 295.46c-1.07 0-1.61-1.07-1.61-3.2v-10.51c0-2.15 0.54-3.22 1.61-3.22h6.02c1.08 0 1.62 1.07 1.62 3.22v10.51c0 2.13-0.54 3.2-1.62 3.2h-6.02z m0.52-3.15c0 0.52 0.05 0.88 0.14 1.08 0.09 0.2 0.27 0.3 0.52 0.3h3.64c0.26 0 0.43-0.1 0.53-0.3 0.09-0.2 0.14-0.56 0.14-1.08v-10.66c0-0.52-0.05-0.88-0.14-1.07-0.09-0.19-0.27-0.29-0.53-0.29h-3.64c-0.25 0-0.43 0.1-0.52 0.29-0.09 0.19-0.14 0.55-0.14 1.07v10.66z" fill="#FFFFFF" p-id="8578"></path><path d="M449.8 274.72h14.27v24.55H449.8z" fill="#273532" p-id="8579"></path><path d="M453.92 295.46c-1.07 0-1.61-1.07-1.61-3.2v-10.51c0-2.15 0.54-3.22 1.61-3.22h6.02c1.08 0 1.62 1.07 1.62 3.22v10.51c0 2.13-0.54 3.2-1.62 3.2h-6.02z m0.53-3.15c0 0.52 0.05 0.88 0.14 1.08 0.09 0.2 0.27 0.3 0.52 0.3h3.65c0.26 0 0.43-0.1 0.53-0.3s0.14-0.56 0.14-1.08v-10.66c0-0.52-0.05-0.88-0.14-1.07-0.09-0.19-0.27-0.29-0.53-0.29h-3.65c-0.25 0-0.43 0.1-0.52 0.29-0.09 0.19-0.14 0.55-0.14 1.07v10.66z" fill="#FFFFFF" p-id="8580"></path><path d="M464.66 274.72h14.27v24.55h-14.27z" fill="#273532" p-id="8581"></path><path d="M468.79 295.46c-1.07 0-1.61-1.07-1.61-3.2v-10.51c0-2.15 0.54-3.22 1.61-3.22h6.02c1.08 0 1.62 1.07 1.62 3.22v10.51c0 2.13-0.54 3.2-1.62 3.2h-6.02z m0.52-3.15c0 0.52 0.05 0.88 0.14 1.08s0.27 0.3 0.52 0.3h3.65c0.26 0 0.43-0.1 0.53-0.3 0.09-0.2 0.14-0.56 0.14-1.08v-10.66c0-0.52-0.05-0.88-0.14-1.07-0.09-0.19-0.27-0.29-0.53-0.29h-3.65c-0.25 0-0.43 0.1-0.52 0.29-0.09 0.19-0.14 0.55-0.14 1.07v10.66z" fill="#FFFFFF" p-id="8582"></path><path d="M479.41 274.72h14.27v24.55h-14.27z" fill="#273532" p-id="8583"></path><path d="M483.53 295.46c-1.07 0-1.61-1.07-1.61-3.2v-10.51c0-2.15 0.54-3.22 1.61-3.22h6.02c1.08 0 1.62 1.07 1.62 3.22v10.51c0 2.13-0.54 3.2-1.62 3.2h-6.02z m0.53-3.15c0 0.52 0.05 0.88 0.14 1.08s0.27 0.3 0.52 0.3h3.64c0.26 0 0.43-0.1 0.53-0.3s0.14-0.56 0.14-1.08v-10.66c0-0.52-0.05-0.88-0.14-1.07-0.09-0.19-0.27-0.29-0.53-0.29h-3.64c-0.25 0-0.43 0.1-0.52 0.29-0.09 0.19-0.14 0.55-0.14 1.07v10.66z" fill="#FFFFFF" p-id="8584"></path><path d="M494.27 274.72h14.27v24.55h-14.27z" fill="#273532" p-id="8585"></path><path d="M509.37 274.72h14.27v24.55h-14.27z" fill="#E05530" p-id="8586"></path><path d="M498.4 295.46c-1.07 0-1.61-1.07-1.61-3.2v-10.51c0-2.15 0.54-3.22 1.61-3.22h6.02c1.08 0 1.62 1.07 1.62 3.22v10.51c0 2.13-0.54 3.2-1.62 3.2h-6.02z m0.52-3.15c0 0.52 0.05 0.88 0.14 1.08 0.09 0.2 0.27 0.3 0.52 0.3h3.64c0.26 0 0.43-0.1 0.53-0.3 0.09-0.2 0.14-0.56 0.14-1.08v-10.66c0-0.52-0.05-0.88-0.14-1.07-0.09-0.19-0.27-0.29-0.53-0.29h-3.64c-0.25 0-0.43 0.1-0.52 0.29-0.09 0.19-0.14 0.55-0.14 1.07v10.66zM515.21 295.46c0.25-0.74 0.38-1.33 0.38-1.75v-11.72h-1.66v-1.57l3.74-1.88h1.05v15.18c0 0.47 0.12 1.05 0.38 1.75h-3.89z" fill="#FFFFFF" p-id="8587"></path><path d="M517.13 312.03h-1.24v-8.05h11.89v-33.32h-11.27v-1.24h12.5v35.8h-11.88z" fill="#E05530" p-id="8588"></path><path d="M558.111401 279.065794a4.2 4.2 0 1 0 7.760588-3.214541 4.2 4.2 0 1 0-7.760588 3.214541Z" fill="#273532" p-id="8589"></path><path d="M586.211401 279.065794a4.2 4.2 0 1 0 7.760588-3.214541 4.2 4.2 0 1 0-7.760588 3.214541Z" fill="#273532" p-id="8590"></path><path d="M572.161401 279.065794a4.2 4.2 0 1 0 7.760588-3.214541 4.2 4.2 0 1 0-7.760588 3.214541Z" fill="#E05530" p-id="8591"></path><path d="M615.162123 281.608763a4.2 4.2 0 1 0 1.93042-8.175175 4.2 4.2 0 1 0-1.93042 8.175175Z" fill="#E05530" p-id="8592"></path><path d="M418.71 381.18h99.52v173.85h-99.52z" fill="#C3C6C3" p-id="8593"></path><path d="M418.71 404.73h99.52v126.75h-99.52z" fill="#FFFFFF" p-id="8594"></path><path d="M425.98 410.36h21.83v8.56h-21.83z" fill="#D4D0DB" p-id="8595"></path><path d="M425.98 422.77h42.48v6.42h-42.48z" fill="#F4E9AD" p-id="8596"></path><path d="M425.98 457.02h19.26v11.09h-19.26zM425.98 486.98h35.1v35.1h-35.1z" fill="#3C413F" p-id="8597"></path><path d="M502.06 493.2v-15.62c-1.69-0.11-3.44-0.19-5.22-0.24-2.57-0.1-5.23-0.14-7.94-0.14-2.72 0-5.37 0.05-7.94 0.14-1.78 0.06-3.52 0.14-5.22 0.24v15.62c4.15 0.25 8.57 0.39 13.16 0.39s9.01-0.14 13.16-0.39z" fill="#FFFF00" p-id="8598"></path><path d="M496.84 476v-1.38c-2.57-0.09-5.23-0.13-7.94-0.13-2.72 0-5.37 0.04-7.94 0.13V476c2.57-0.09 5.23-0.13 7.94-0.13 2.72 0 5.37 0.04 7.94 0.13z" fill="#C3C300" p-id="8599"></path><path d="M496.84 450.85v-0.38c0-0.87-0.49-1.58-1.1-1.58h-13.68c-0.61 0-1.1 0.71-1.1 1.58v0.38h15.88z" fill="#FFFF00" p-id="8600"></path><path d="M496.84 474.62v-23.76h-15.88v23.76c2.57-0.09 5.23-0.13 7.94-0.13 2.72-0.01 5.37 0.04 7.94 0.13z" fill="#EAEA00" p-id="8601"></path><path d="M488.9 452.82c-1.65 0-2.99 3.05-2.99 6.81s1.34 6.81 2.99 6.81c1.65 0 2.99-3.05 2.99-6.81 0.01-3.76-1.33-6.81-2.99-6.81z m0 12.44c-1.37 0-2.47-2.51-2.47-5.62 0-3.11 1.11-5.63 2.47-5.63s2.47 2.52 2.47 5.63-1.1 5.62-2.47 5.62z" fill="#333333" p-id="8602"></path><path d="M497.9 477.11v-28.5c0-0.71-0.31-1.29-0.7-1.29h-16.6c-0.39 0-0.7 0.58-0.7 1.29v28.5c0.35-0.02 0.7-0.03 1.06-0.04v-26.54c0-0.91 0.49-1.64 1.1-1.64h13.68c0.61 0 1.1 0.74 1.1 1.64v26.54c0.36 0.01 0.71 0.03 1.06 0.04z" fill="#C3C6C3" p-id="8603"></path><path d="M502.06 477.59v-0.41c0-0.49-0.22-0.9-0.5-0.92-1.54-0.11-3.11-0.19-4.72-0.25-2.57-0.11-5.23-0.16-7.94-0.16-2.72 0-5.37 0.05-7.94 0.16-1.61 0.06-3.18 0.15-4.72 0.25-0.28 0.02-0.5 0.43-0.5 0.92v0.41c1.69-0.11 3.44-0.19 5.22-0.24 2.57-0.1 5.23-0.14 7.94-0.14 2.72 0 5.37 0.05 7.94 0.14 1.78 0.05 3.53 0.13 5.22 0.24z" fill="#FFFFB1" p-id="8604"></path><path d="M444.66 393.13c0 4.49-3.64 8.13-8.14 8.13a8.13 8.13 0 0 1-8.13-8.13c0-4.49 3.64-8.14 8.13-8.14 4.49 0.01 8.14 3.65 8.14 8.14z" fill="#434343" p-id="8605"></path><path d="M441.34 391.39h-2.29c-0.44 0-0.79-0.36-0.79-0.79v-2.29c0-0.44-0.35-0.79-0.79-0.79h-1.9c-0.44 0-0.79 0.35-0.79 0.79v2.29c0 0.44-0.35 0.79-0.79 0.79h-2.29c-0.44 0-0.79 0.35-0.79 0.79v1.9c0 0.44 0.36 0.79 0.79 0.79h2.29c0.44 0 0.79 0.35 0.79 0.79v2.29c0 0.44 0.36 0.79 0.79 0.79h1.9c0.44 0 0.79-0.36 0.79-0.79v-2.29c0-0.44 0.36-0.79 0.79-0.79h2.29c0.44 0 0.79-0.36 0.79-0.79v-1.9c0-0.44-0.35-0.79-0.79-0.79z m0.04 2.56c0 0.38-0.31 0.68-0.68 0.68h-1.98c-0.38 0-0.69 0.31-0.69 0.69v1.98c0 0.38-0.31 0.68-0.69 0.68h-1.64a0.68 0.68 0 0 1-0.68-0.68v-1.98c0-0.38-0.31-0.69-0.69-0.69h-1.98a0.69 0.69 0 0 1-0.69-0.68v-1.65c0-0.38 0.31-0.68 0.69-0.68h1.98c0.38 0 0.69-0.31 0.69-0.69v-1.98c0-0.38 0.31-0.68 0.68-0.68h1.64c0.38 0 0.69 0.31 0.69 0.68v1.98c0 0.38 0.31 0.69 0.69 0.69h1.98c0.38 0 0.68 0.31 0.68 0.68v1.65z" fill="#323232" p-id="8606"></path><path d="M441.38 392.31v1.65c0 0.38-0.31 0.68-0.68 0.68h-1.98c-0.38 0-0.69 0.31-0.69 0.69v1.98c0 0.38-0.31 0.68-0.69 0.68h-1.64a0.68 0.68 0 0 1-0.68-0.68v-1.98c0-0.38-0.31-0.69-0.69-0.69h-1.98a0.69 0.69 0 0 1-0.69-0.68v-1.65c0-0.38 0.31-0.68 0.69-0.68h1.98c0.38 0 0.69-0.31 0.69-0.69v-1.98c0-0.38 0.31-0.68 0.68-0.68h1.64c0.38 0 0.69 0.31 0.69 0.68v1.98c0 0.38 0.31 0.69 0.69 0.69h1.98c0.38-0.01 0.68 0.3 0.68 0.68z" fill="#2A2A2A" p-id="8607"></path><path d="M436.52 385c-4.49 0-8.13 3.64-8.13 8.14a8.13 8.13 0 0 0 8.13 8.13c4.49 0 8.14-3.64 8.14-8.13 0-4.5-3.65-8.14-8.14-8.14z m0 15.84c-4.25 0-7.71-3.45-7.71-7.71s3.45-7.71 7.71-7.71 7.71 3.45 7.71 7.71-3.45 7.71-7.71 7.71z" fill="#585858" p-id="8608"></path><path d="M508.54 393.13c0 4.49-3.64 8.13-8.14 8.13a8.13 8.13 0 0 1-8.13-8.13c0-4.49 3.64-8.14 8.13-8.14 4.5 0.01 8.14 3.65 8.14 8.14z" fill="#434343" p-id="8609"></path><path d="M505.23 391.39h-2.29c-0.44 0-0.79-0.36-0.79-0.79v-2.29c0-0.44-0.35-0.79-0.79-0.79h-1.9c-0.44 0-0.79 0.35-0.79 0.79v2.29c0 0.44-0.35 0.79-0.79 0.79h-2.29c-0.44 0-0.79 0.35-0.79 0.79v1.9c0 0.44 0.36 0.79 0.79 0.79h2.29c0.44 0 0.79 0.35 0.79 0.79v2.29c0 0.44 0.36 0.79 0.79 0.79h1.9c0.44 0 0.79-0.36 0.79-0.79v-2.29c0-0.44 0.36-0.79 0.79-0.79h2.29c0.44 0 0.79-0.36 0.79-0.79v-1.9c0-0.44-0.35-0.79-0.79-0.79z m0.04 2.56c0 0.38-0.31 0.68-0.68 0.68h-1.98c-0.38 0-0.69 0.31-0.69 0.69v1.98c0 0.38-0.31 0.68-0.69 0.68h-1.64a0.68 0.68 0 0 1-0.68-0.68v-1.98c0-0.38-0.31-0.69-0.69-0.69h-1.98a0.69 0.69 0 0 1-0.69-0.68v-1.65c0-0.38 0.31-0.68 0.69-0.68h1.98c0.38 0 0.69-0.31 0.69-0.69v-1.98c0-0.38 0.31-0.68 0.68-0.68h1.64c0.38 0 0.69 0.31 0.69 0.68v1.98c0 0.38 0.31 0.69 0.69 0.69h1.98c0.38 0 0.68 0.31 0.68 0.68v1.65z" fill="#323232" p-id="8610"></path><path d="M505.27 392.31v1.65c0 0.38-0.31 0.68-0.68 0.68h-1.98c-0.38 0-0.69 0.31-0.69 0.69v1.98c0 0.38-0.31 0.68-0.69 0.68h-1.64a0.68 0.68 0 0 1-0.68-0.68v-1.98c0-0.38-0.31-0.69-0.69-0.69h-1.98a0.69 0.69 0 0 1-0.69-0.68v-1.65c0-0.38 0.31-0.68 0.69-0.68h1.98c0.38 0 0.69-0.31 0.69-0.69v-1.98c0-0.38 0.31-0.68 0.68-0.68h1.64c0.38 0 0.69 0.31 0.69 0.68v1.98c0 0.38 0.31 0.69 0.69 0.69h1.98c0.37-0.01 0.68 0.3 0.68 0.68z" fill="#2A2A2A" p-id="8611"></path><path d="M500.41 385c-4.49 0-8.13 3.64-8.13 8.14 0 4.49 3.64 8.13 8.13 8.13s8.14-3.64 8.14-8.13c-0.01-4.5-3.65-8.14-8.14-8.14z m0 15.84c-4.25 0-7.71-3.45-7.71-7.71s3.45-7.71 7.71-7.71 7.71 3.45 7.71 7.71-3.45 7.71-7.71 7.71z" fill="#585858" p-id="8612"></path><path d="M476.6 393.13c0 4.49-3.64 8.13-8.14 8.13a8.13 8.13 0 0 1-8.13-8.13c0-4.49 3.64-8.14 8.13-8.14 4.5 0.01 8.14 3.65 8.14 8.14z" fill="#434343" p-id="8613"></path><path d="M473.29 391.39H471c-0.44 0-0.79-0.36-0.79-0.79v-2.29c0-0.44-0.35-0.79-0.79-0.79h-1.9c-0.44 0-0.79 0.35-0.79 0.79v2.29c0 0.44-0.35 0.79-0.79 0.79h-2.29c-0.44 0-0.79 0.35-0.79 0.79v1.9c0 0.44 0.36 0.79 0.79 0.79h2.29c0.44 0 0.79 0.35 0.79 0.79v2.29c0 0.44 0.36 0.79 0.79 0.79h1.9c0.44 0 0.79-0.36 0.79-0.79v-2.29c0-0.44 0.36-0.79 0.79-0.79h2.29c0.44 0 0.79-0.36 0.79-0.79v-1.9c0-0.44-0.35-0.79-0.79-0.79z m0.03 2.56c0 0.38-0.31 0.68-0.68 0.68h-1.98c-0.38 0-0.69 0.31-0.69 0.69v1.98c0 0.38-0.31 0.68-0.69 0.68h-1.64a0.68 0.68 0 0 1-0.68-0.68v-1.98c0-0.38-0.31-0.69-0.69-0.69h-1.98a0.69 0.69 0 0 1-0.69-0.68v-1.65c0-0.38 0.31-0.68 0.69-0.68h1.98c0.38 0 0.69-0.31 0.69-0.69v-1.98c0-0.38 0.31-0.68 0.68-0.68h1.64c0.38 0 0.69 0.31 0.69 0.68v1.98c0 0.38 0.31 0.69 0.69 0.69h1.98c0.38 0 0.68 0.31 0.68 0.68v1.65z" fill="#323232" p-id="8614"></path><path d="M473.32 392.31v1.65c0 0.38-0.31 0.68-0.68 0.68h-1.98c-0.38 0-0.69 0.31-0.69 0.69v1.98c0 0.38-0.31 0.68-0.69 0.68h-1.64a0.68 0.68 0 0 1-0.68-0.68v-1.98c0-0.38-0.31-0.69-0.69-0.69h-1.98a0.69 0.69 0 0 1-0.69-0.68v-1.65c0-0.38 0.31-0.68 0.69-0.68h1.98c0.38 0 0.69-0.31 0.69-0.69v-1.98c0-0.38 0.31-0.68 0.68-0.68h1.64c0.38 0 0.69 0.31 0.69 0.68v1.98c0 0.38 0.31 0.69 0.69 0.69h1.98c0.38-0.01 0.68 0.3 0.68 0.68z" fill="#2A2A2A" p-id="8615"></path><path d="M468.46 385c-4.49 0-8.13 3.64-8.13 8.14a8.13 8.13 0 0 0 8.13 8.13c4.49 0 8.14-3.64 8.14-8.13 0-4.5-3.65-8.14-8.14-8.14z m0 15.84c-4.25 0-7.71-3.45-7.71-7.71s3.45-7.71 7.71-7.71 7.71 3.45 7.71 7.71c0.01 4.26-3.45 7.71-7.71 7.71z" fill="#585858" p-id="8616"></path><path d="M444.66 543.08c0 4.49-3.64 8.13-8.14 8.13a8.13 8.13 0 0 1-8.13-8.13c0-4.49 3.64-8.14 8.13-8.14 4.49 0.01 8.14 3.65 8.14 8.14z" fill="#434343" p-id="8617"></path><path d="M441.34 541.34h-2.29c-0.44 0-0.79-0.36-0.79-0.79v-2.29c0-0.44-0.35-0.79-0.79-0.79h-1.9c-0.44 0-0.79 0.35-0.79 0.79v2.29c0 0.44-0.35 0.79-0.79 0.79h-2.29c-0.44 0-0.79 0.35-0.79 0.79v1.9c0 0.44 0.36 0.79 0.79 0.79h2.29c0.44 0 0.79 0.35 0.79 0.79v2.29c0 0.44 0.36 0.79 0.79 0.79h1.9c0.44 0 0.79-0.36 0.79-0.79v-2.29c0-0.44 0.36-0.79 0.79-0.79h2.29c0.44 0 0.79-0.36 0.79-0.79v-1.9c0-0.43-0.35-0.79-0.79-0.79z m0.04 2.56c0 0.38-0.31 0.68-0.68 0.68h-1.98c-0.38 0-0.69 0.31-0.69 0.69v1.98c0 0.38-0.31 0.68-0.69 0.68h-1.64a0.68 0.68 0 0 1-0.68-0.68v-1.98c0-0.38-0.31-0.69-0.69-0.69h-1.98a0.69 0.69 0 0 1-0.69-0.68v-1.65c0-0.38 0.31-0.68 0.69-0.68h1.98c0.38 0 0.69-0.31 0.69-0.69v-1.98c0-0.38 0.31-0.68 0.68-0.68h1.64c0.38 0 0.69 0.31 0.69 0.68v1.98c0 0.38 0.31 0.69 0.69 0.69h1.98c0.38 0 0.68 0.31 0.68 0.68v1.65z" fill="#323232" p-id="8618"></path><path d="M441.38 542.26v1.65c0 0.38-0.31 0.68-0.68 0.68h-1.98c-0.38 0-0.69 0.31-0.69 0.69v1.98c0 0.38-0.31 0.68-0.69 0.68h-1.64a0.68 0.68 0 0 1-0.68-0.68v-1.98c0-0.38-0.31-0.69-0.69-0.69h-1.98a0.69 0.69 0 0 1-0.69-0.68v-1.65c0-0.38 0.31-0.68 0.69-0.68h1.98c0.38 0 0.69-0.31 0.69-0.69v-1.98c0-0.38 0.31-0.68 0.68-0.68h1.64c0.38 0 0.69 0.31 0.69 0.68v1.98c0 0.38 0.31 0.69 0.69 0.69h1.98c0.38 0 0.68 0.3 0.68 0.68z" fill="#2A2A2A" p-id="8619"></path><path d="M436.52 534.95c-4.49 0-8.13 3.64-8.13 8.14a8.13 8.13 0 0 0 8.13 8.13c4.49 0 8.14-3.64 8.14-8.13 0-4.5-3.65-8.14-8.14-8.14z m0 15.84c-4.25 0-7.71-3.45-7.71-7.71s3.45-7.71 7.71-7.71 7.71 3.45 7.71 7.71-3.45 7.71-7.71 7.71z" fill="#585858" p-id="8620"></path><path d="M508.54 543.08c0 4.49-3.64 8.13-8.14 8.13a8.13 8.13 0 0 1-8.13-8.13c0-4.49 3.64-8.14 8.13-8.14 4.5 0.01 8.14 3.65 8.14 8.14z" fill="#434343" p-id="8621"></path><path d="M505.23 541.34h-2.29c-0.44 0-0.79-0.36-0.79-0.79v-2.29c0-0.44-0.35-0.79-0.79-0.79h-1.9c-0.44 0-0.79 0.35-0.79 0.79v2.29c0 0.44-0.35 0.79-0.79 0.79h-2.29c-0.44 0-0.79 0.35-0.79 0.79v1.9c0 0.44 0.36 0.79 0.79 0.79h2.29c0.44 0 0.79 0.35 0.79 0.79v2.29c0 0.44 0.36 0.79 0.79 0.79h1.9c0.44 0 0.79-0.36 0.79-0.79v-2.29c0-0.44 0.36-0.79 0.79-0.79h2.29c0.44 0 0.79-0.36 0.79-0.79v-1.9c0-0.43-0.35-0.79-0.79-0.79z m0.04 2.56c0 0.38-0.31 0.68-0.68 0.68h-1.98c-0.38 0-0.69 0.31-0.69 0.69v1.98c0 0.38-0.31 0.68-0.69 0.68h-1.64a0.68 0.68 0 0 1-0.68-0.68v-1.98c0-0.38-0.31-0.69-0.69-0.69h-1.98a0.69 0.69 0 0 1-0.69-0.68v-1.65c0-0.38 0.31-0.68 0.69-0.68h1.98c0.38 0 0.69-0.31 0.69-0.69v-1.98c0-0.38 0.31-0.68 0.68-0.68h1.64c0.38 0 0.69 0.31 0.69 0.68v1.98c0 0.38 0.31 0.69 0.69 0.69h1.98c0.38 0 0.68 0.31 0.68 0.68v1.65z" fill="#323232" p-id="8622"></path><path d="M505.27 542.26v1.65c0 0.38-0.31 0.68-0.68 0.68h-1.98c-0.38 0-0.69 0.31-0.69 0.69v1.98c0 0.38-0.31 0.68-0.69 0.68h-1.64a0.68 0.68 0 0 1-0.68-0.68v-1.98c0-0.38-0.31-0.69-0.69-0.69h-1.98a0.69 0.69 0 0 1-0.69-0.68v-1.65c0-0.38 0.31-0.68 0.69-0.68h1.98c0.38 0 0.69-0.31 0.69-0.69v-1.98c0-0.38 0.31-0.68 0.68-0.68h1.64c0.38 0 0.69 0.31 0.69 0.68v1.98c0 0.38 0.31 0.69 0.69 0.69h1.98c0.37 0 0.68 0.3 0.68 0.68z" fill="#2A2A2A" p-id="8623"></path><path d="M500.41 534.95c-4.49 0-8.13 3.64-8.13 8.14 0 4.49 3.64 8.13 8.13 8.13s8.14-3.64 8.14-8.13c-0.01-4.5-3.65-8.14-8.14-8.14z m0 15.84c-4.25 0-7.71-3.45-7.71-7.71s3.45-7.71 7.71-7.71 7.71 3.45 7.71 7.71-3.45 7.71-7.71 7.71z" fill="#585858" p-id="8624"></path><path d="M476.6 543.08c0 4.49-3.64 8.13-8.14 8.13a8.13 8.13 0 0 1-8.13-8.13c0-4.49 3.64-8.14 8.13-8.14 4.5 0.01 8.14 3.65 8.14 8.14z" fill="#434343" p-id="8625"></path><path d="M473.29 541.34H471c-0.44 0-0.79-0.36-0.79-0.79v-2.29c0-0.44-0.35-0.79-0.79-0.79h-1.9c-0.44 0-0.79 0.35-0.79 0.79v2.29c0 0.44-0.35 0.79-0.79 0.79h-2.29c-0.44 0-0.79 0.35-0.79 0.79v1.9c0 0.44 0.36 0.79 0.79 0.79h2.29c0.44 0 0.79 0.35 0.79 0.79v2.29c0 0.44 0.36 0.79 0.79 0.79h1.9c0.44 0 0.79-0.36 0.79-0.79v-2.29c0-0.44 0.36-0.79 0.79-0.79h2.29c0.44 0 0.79-0.36 0.79-0.79v-1.9c0-0.43-0.35-0.79-0.79-0.79z m0.03 2.56c0 0.38-0.31 0.68-0.68 0.68h-1.98c-0.38 0-0.69 0.31-0.69 0.69v1.98c0 0.38-0.31 0.68-0.69 0.68h-1.64a0.68 0.68 0 0 1-0.68-0.68v-1.98c0-0.38-0.31-0.69-0.69-0.69h-1.98a0.69 0.69 0 0 1-0.69-0.68v-1.65c0-0.38 0.31-0.68 0.69-0.68h1.98c0.38 0 0.69-0.31 0.69-0.69v-1.98c0-0.38 0.31-0.68 0.68-0.68h1.64c0.38 0 0.69 0.31 0.69 0.68v1.98c0 0.38 0.31 0.69 0.69 0.69h1.98c0.38 0 0.68 0.31 0.68 0.68v1.65z" fill="#323232" p-id="8626"></path><path d="M473.32 542.26v1.65c0 0.38-0.31 0.68-0.68 0.68h-1.98c-0.38 0-0.69 0.31-0.69 0.69v1.98c0 0.38-0.31 0.68-0.69 0.68h-1.64a0.68 0.68 0 0 1-0.68-0.68v-1.98c0-0.38-0.31-0.69-0.69-0.69h-1.98a0.69 0.69 0 0 1-0.69-0.68v-1.65c0-0.38 0.31-0.68 0.69-0.68h1.98c0.38 0 0.69-0.31 0.69-0.69v-1.98c0-0.38 0.31-0.68 0.68-0.68h1.64c0.38 0 0.69 0.31 0.69 0.68v1.98c0 0.38 0.31 0.69 0.69 0.69h1.98c0.38 0 0.68 0.3 0.68 0.68z" fill="#2A2A2A" p-id="8627"></path><path d="M468.46 534.95c-4.49 0-8.13 3.64-8.13 8.14a8.13 8.13 0 0 0 8.13 8.13c4.49 0 8.14-3.64 8.14-8.13 0-4.5-3.65-8.14-8.14-8.14z m0 15.84c-4.25 0-7.71-3.45-7.71-7.71s3.45-7.71 7.71-7.71 7.71 3.45 7.71 7.71c0.01 4.26-3.45 7.71-7.71 7.71z" fill="#585858" p-id="8628"></path><path d="M575.43 379.5h44.94v177.2h-44.94z" fill="#C3C6C3" p-id="8629"></path><path d="M575.43 406.9h44.94v122.41h-44.94z" fill="#FFFFFF" p-id="8630"></path><path d="M577.57 411.18h11.98v9.42h-11.98z" fill="#D4D0DB" p-id="8631"></path><path d="M577.57 422.31h38.09v7.7h-38.09z" fill="#F4E9AD" p-id="8632"></path><path d="M619.71 516.38v-0.6c-6.88 0.25-14.2 0.39-21.81 0.39-7.61 0-14.93-0.14-21.81-0.39v0.6c0 0.39 0.28 0.7 0.64 0.72 6.69 0.27 13.8 0.42 21.17 0.42s14.48-0.15 21.17-0.42c0.36-0.02 0.64-0.33 0.64-0.72z" fill="#EAEA00" p-id="8633"></path><path d="M619.71 515.78v-15.62c-2.81-0.11-5.7-0.19-8.65-0.24-4.27-0.1-8.66-0.14-13.16-0.14s-8.9 0.05-13.16 0.14c-2.95 0.06-5.84 0.14-8.65 0.24v15.62c6.88 0.25 14.2 0.39 21.81 0.39 7.6-0.01 14.93-0.14 21.81-0.39z" fill="#FFFF00" p-id="8634"></path><path d="M611.06 498.58v-1.39c-4.27-0.09-8.66-0.13-13.16-0.13s-8.9 0.04-13.16 0.13v1.39c4.27-0.09 8.66-0.13 13.16-0.13 4.5-0.01 8.89 0.04 13.16 0.13z" fill="#C3C300" p-id="8635"></path><path d="M611.06 473.43v-0.38c0-0.87-0.82-1.58-1.83-1.58h-22.67c-1.01 0-1.83 0.71-1.83 1.58v0.38h26.33z" fill="#FFFF00" p-id="8636"></path><path d="M611.06 497.19v-23.76h-26.32v23.76c4.27-0.09 8.66-0.13 13.16-0.13s8.89 0.04 13.16 0.13z" fill="#EAEA00" p-id="8637"></path><path d="M597.9 475.4c-2.73 0-4.96 3.05-4.96 6.81s2.23 6.81 4.96 6.81c2.74 0 4.96-3.05 4.96-6.81 0-3.77-2.22-6.81-4.96-6.81z m0 12.43c-2.26 0-4.1-2.51-4.1-5.62s1.83-5.63 4.1-5.63c2.26 0 4.1 2.52 4.1 5.63s-1.84 5.62-4.1 5.62z" fill="#333333" p-id="8638"></path><path d="M612.81 499.69v-28.5c0-0.71-0.52-1.29-1.16-1.29h-27.51c-0.64 0-1.16 0.58-1.16 1.29v28.5c0.58-0.02 1.17-0.03 1.75-0.04V473.1c0-0.9 0.82-1.64 1.83-1.64h22.67c1.01 0 1.83 0.74 1.83 1.64v26.54c0.59 0.01 1.17 0.03 1.75 0.05z" fill="#C3C6C3" p-id="8639"></path><path d="M619.71 500.16v-0.41c0-0.49-0.36-0.9-0.82-0.92-2.55-0.11-5.16-0.19-7.82-0.25-4.27-0.11-8.66-0.16-13.16-0.16s-8.9 0.05-13.16 0.16c-2.66 0.06-5.28 0.15-7.82 0.25-0.46 0.02-0.82 0.43-0.82 0.92v0.41c2.81-0.11 5.7-0.19 8.65-0.24 4.27-0.1 8.66-0.14 13.16-0.14s8.9 0.05 13.16 0.14c2.93 0.05 5.82 0.13 8.63 0.24z" fill="#FFFFB1" p-id="8640"></path><path d="M606.03 392.99c0 4.49-3.64 8.13-8.14 8.13a8.13 8.13 0 0 1-8.13-8.13c0-4.49 3.64-8.14 8.13-8.14 4.5 0 8.14 3.65 8.14 8.14z" fill="#434343" p-id="8641"></path><path d="M602.72 391.25h-2.29c-0.44 0-0.79-0.36-0.79-0.79v-2.29c0-0.44-0.35-0.79-0.79-0.79h-1.9c-0.44 0-0.79 0.35-0.79 0.79v2.29c0 0.44-0.35 0.79-0.79 0.79h-2.29c-0.44 0-0.79 0.35-0.79 0.79v1.9c0 0.44 0.36 0.79 0.79 0.79h2.29c0.44 0 0.79 0.35 0.79 0.79v2.29c0 0.44 0.36 0.79 0.79 0.79h1.9c0.44 0 0.79-0.36 0.79-0.79v-2.29c0-0.44 0.36-0.79 0.79-0.79h2.29c0.44 0 0.79-0.36 0.79-0.79v-1.9c0-0.44-0.35-0.79-0.79-0.79z m0.04 2.56c0 0.38-0.31 0.68-0.68 0.68h-1.98c-0.38 0-0.69 0.31-0.69 0.69v1.98c0 0.38-0.31 0.68-0.69 0.68h-1.64a0.68 0.68 0 0 1-0.68-0.68v-1.98c0-0.38-0.31-0.69-0.69-0.69h-1.98a0.69 0.69 0 0 1-0.69-0.68v-1.65c0-0.38 0.31-0.68 0.69-0.68h1.98c0.38 0 0.69-0.31 0.69-0.69v-1.98c0-0.38 0.31-0.68 0.68-0.68h1.64c0.38 0 0.69 0.31 0.69 0.68v1.98c0 0.38 0.31 0.69 0.69 0.69h1.98c0.38 0 0.68 0.31 0.68 0.68v1.65z" fill="#323232" p-id="8642"></path><path d="M602.76 392.16v1.65c0 0.38-0.31 0.68-0.68 0.68h-1.98c-0.38 0-0.69 0.31-0.69 0.69v1.98c0 0.38-0.31 0.68-0.69 0.68h-1.64a0.68 0.68 0 0 1-0.68-0.68v-1.98c0-0.38-0.31-0.69-0.69-0.69h-1.98a0.69 0.69 0 0 1-0.69-0.68v-1.65c0-0.38 0.31-0.68 0.69-0.68h1.98c0.38 0 0.69-0.31 0.69-0.69v-1.98c0-0.38 0.31-0.68 0.68-0.68h1.64c0.38 0 0.69 0.31 0.69 0.68v1.98c0 0.38 0.31 0.69 0.69 0.69h1.98c0.37 0 0.68 0.31 0.68 0.68z" fill="#2A2A2A" p-id="8643"></path><path d="M597.89 384.85c-4.49 0-8.13 3.64-8.13 8.14a8.13 8.13 0 0 0 8.13 8.13c4.49 0 8.14-3.64 8.14-8.13a8.14 8.14 0 0 0-8.14-8.14z m0 15.85c-4.25 0-7.71-3.45-7.71-7.71s3.45-7.71 7.71-7.71 7.71 3.45 7.71 7.71c0.01 4.25-3.44 7.71-7.71 7.71z" fill="#585858" p-id="8644"></path><path d="M606.03 543.23c0 4.49-3.64 8.13-8.14 8.13a8.13 8.13 0 0 1-8.13-8.13 8.134 8.134 0 1 1 16.27 0z" fill="#434343" p-id="8645"></path><path d="M602.72 541.49h-2.29c-0.44 0-0.79-0.36-0.79-0.79v-2.29c0-0.44-0.35-0.79-0.79-0.79h-1.9c-0.44 0-0.79 0.35-0.79 0.79v2.29c0 0.44-0.35 0.79-0.79 0.79h-2.29c-0.44 0-0.79 0.35-0.79 0.79v1.9c0 0.44 0.36 0.79 0.79 0.79h2.29c0.44 0 0.79 0.35 0.79 0.79v2.29c0 0.44 0.36 0.79 0.79 0.79h1.9c0.44 0 0.79-0.36 0.79-0.79v-2.29c0-0.44 0.36-0.79 0.79-0.79h2.29c0.44 0 0.79-0.36 0.79-0.79v-1.9c0-0.44-0.35-0.79-0.79-0.79z m0.04 2.56c0 0.38-0.31 0.68-0.68 0.68h-1.98c-0.38 0-0.69 0.31-0.69 0.69v1.98c0 0.38-0.31 0.68-0.69 0.68h-1.64a0.68 0.68 0 0 1-0.68-0.68v-1.98c0-0.38-0.31-0.69-0.69-0.69h-1.98a0.69 0.69 0 0 1-0.69-0.68v-1.65c0-0.38 0.31-0.68 0.69-0.68h1.98c0.38 0 0.69-0.31 0.69-0.69v-1.98c0-0.38 0.31-0.68 0.68-0.68h1.64c0.38 0 0.69 0.31 0.69 0.68v1.98c0 0.38 0.31 0.69 0.69 0.69h1.98c0.38 0 0.68 0.31 0.68 0.68v1.65z" fill="#323232" p-id="8646"></path><path d="M602.76 542.4v1.65c0 0.38-0.31 0.68-0.68 0.68h-1.98c-0.38 0-0.69 0.31-0.69 0.69v1.98c0 0.38-0.31 0.68-0.69 0.68h-1.64a0.68 0.68 0 0 1-0.68-0.68v-1.98c0-0.38-0.31-0.69-0.69-0.69h-1.98a0.69 0.69 0 0 1-0.69-0.68v-1.65c0-0.38 0.31-0.68 0.69-0.68h1.98c0.38 0 0.69-0.31 0.69-0.69v-1.98c0-0.38 0.31-0.68 0.68-0.68h1.64c0.38 0 0.69 0.31 0.69 0.68v1.98c0 0.38 0.31 0.69 0.69 0.69h1.98c0.37 0 0.68 0.3 0.68 0.68z" fill="#2A2A2A" p-id="8647"></path><path d="M597.89 535.09c-4.49 0-8.13 3.64-8.13 8.14s3.64 8.13 8.13 8.13 8.14-3.64 8.14-8.13-3.64-8.14-8.14-8.14z m0 15.84c-4.25 0-7.71-3.45-7.71-7.71s3.45-7.71 7.71-7.71 7.71 3.45 7.71 7.71c0.01 4.26-3.44 7.71-7.71 7.71z" fill="#585858" p-id="8648"></path><path d="M693.99 411.18h11.98v9.42h-11.98z" fill="#D4D0DB" p-id="8649"></path><path d="M669.38 379.5h44.94v177.2h-44.94z" fill="#C3C6C3" p-id="8650"></path><path d="M669.38 406.9h44.94v122.41h-44.94z" fill="#FFFFFF" p-id="8651"></path><path d="M671.52 411.18h11.98v9.42h-11.98z" fill="#D4D0DB" p-id="8652"></path><path d="M671.52 422.31h38.09v7.7h-38.09z" fill="#F4E9AD" p-id="8653"></path><path d="M713.66 516.38v-0.6c-6.88 0.25-14.2 0.39-21.81 0.39-7.61 0-14.93-0.14-21.81-0.39v0.6c0 0.39 0.28 0.7 0.64 0.72 6.69 0.27 13.8 0.42 21.17 0.42s14.48-0.15 21.17-0.42c0.36-0.02 0.64-0.33 0.64-0.72z" fill="#EAEA00" p-id="8654"></path><path d="M713.66 515.78v-15.62c-2.81-0.11-5.7-0.19-8.65-0.24-4.27-0.1-8.66-0.14-13.16-0.14s-8.9 0.05-13.16 0.14c-2.95 0.06-5.84 0.14-8.65 0.24v15.62c6.88 0.25 14.2 0.39 21.81 0.39 7.6-0.01 14.93-0.14 21.81-0.39z" fill="#FFFF00" p-id="8655"></path><path d="M705.01 498.58v-1.39c-4.27-0.09-8.66-0.13-13.16-0.13s-8.9 0.04-13.16 0.13v1.39c4.27-0.09 8.66-0.13 13.16-0.13 4.5-0.01 8.89 0.04 13.16 0.13z" fill="#C3C300" p-id="8656"></path><path d="M705.01 473.43v-0.38c0-0.87-0.82-1.58-1.83-1.58h-22.67c-1.01 0-1.83 0.71-1.83 1.58v0.38h26.33z" fill="#FFFF00" p-id="8657"></path><path d="M705.01 497.19v-23.76h-26.32v23.76c4.27-0.09 8.66-0.13 13.16-0.13s8.89 0.04 13.16 0.13z" fill="#EAEA00" p-id="8658"></path><path d="M691.85 475.4c-2.73 0-4.96 3.05-4.96 6.81s2.23 6.81 4.96 6.81c2.74 0 4.96-3.05 4.96-6.81 0-3.77-2.22-6.81-4.96-6.81z m0 12.43c-2.26 0-4.1-2.51-4.1-5.62s1.83-5.63 4.1-5.63c2.26 0 4.1 2.52 4.1 5.63s-1.84 5.62-4.1 5.62z" fill="#333333" p-id="8659"></path><path d="M706.76 499.69v-28.5c0-0.71-0.52-1.29-1.16-1.29h-27.51c-0.64 0-1.16 0.58-1.16 1.29v28.5c0.58-0.02 1.17-0.03 1.75-0.04V473.1c0-0.9 0.82-1.64 1.83-1.64h22.67c1.01 0 1.83 0.74 1.83 1.64v26.54c0.59 0.01 1.17 0.03 1.75 0.05z" fill="#C3C6C3" p-id="8660"></path><path d="M713.66 500.16v-0.41c0-0.49-0.36-0.9-0.82-0.92-2.55-0.11-5.16-0.19-7.82-0.25-4.27-0.11-8.66-0.16-13.16-0.16s-8.9 0.05-13.16 0.16c-2.66 0.06-5.28 0.15-7.82 0.25-0.46 0.02-0.82 0.43-0.82 0.92v0.41c2.81-0.11 5.7-0.19 8.65-0.24 4.27-0.1 8.66-0.14 13.16-0.14s8.9 0.05 13.16 0.14c2.93 0.05 5.82 0.13 8.63 0.24z" fill="#FFFFB1" p-id="8661"></path><path d="M699.98 392.99c0 4.49-3.64 8.13-8.14 8.13a8.13 8.13 0 0 1-8.13-8.13c0-4.49 3.64-8.14 8.13-8.14 4.5 0 8.14 3.65 8.14 8.14z" fill="#434343" p-id="8662"></path><path d="M696.67 391.25h-2.29c-0.44 0-0.79-0.36-0.79-0.79v-2.29c0-0.44-0.35-0.79-0.79-0.79h-1.9c-0.44 0-0.79 0.35-0.79 0.79v2.29c0 0.44-0.35 0.79-0.79 0.79h-2.29c-0.44 0-0.79 0.35-0.79 0.79v1.9c0 0.44 0.36 0.79 0.79 0.79h2.29c0.44 0 0.79 0.35 0.79 0.79v2.29c0 0.44 0.36 0.79 0.79 0.79h1.9c0.44 0 0.79-0.36 0.79-0.79v-2.29c0-0.44 0.36-0.79 0.79-0.79h2.29c0.44 0 0.79-0.36 0.79-0.79v-1.9c0-0.44-0.35-0.79-0.79-0.79z m0.04 2.56c0 0.38-0.31 0.68-0.68 0.68h-1.98c-0.38 0-0.69 0.31-0.69 0.69v1.98c0 0.38-0.31 0.68-0.69 0.68h-1.64a0.68 0.68 0 0 1-0.68-0.68v-1.98c0-0.38-0.31-0.69-0.69-0.69h-1.98a0.69 0.69 0 0 1-0.69-0.68v-1.65c0-0.38 0.31-0.68 0.69-0.68h1.98c0.38 0 0.69-0.31 0.69-0.69v-1.98c0-0.38 0.31-0.68 0.68-0.68h1.64c0.38 0 0.69 0.31 0.69 0.68v1.98c0 0.38 0.31 0.69 0.69 0.69h1.98c0.38 0 0.68 0.31 0.68 0.68v1.65z" fill="#323232" p-id="8663"></path><path d="M696.71 392.16v1.65c0 0.38-0.31 0.68-0.68 0.68h-1.98c-0.38 0-0.69 0.31-0.69 0.69v1.98c0 0.38-0.31 0.68-0.69 0.68h-1.64a0.68 0.68 0 0 1-0.68-0.68v-1.98c0-0.38-0.31-0.69-0.69-0.69h-1.98a0.69 0.69 0 0 1-0.69-0.68v-1.65c0-0.38 0.31-0.68 0.69-0.68h1.98c0.38 0 0.69-0.31 0.69-0.69v-1.98c0-0.38 0.31-0.68 0.68-0.68h1.64c0.38 0 0.69 0.31 0.69 0.68v1.98c0 0.38 0.31 0.69 0.69 0.69h1.98c0.37 0 0.68 0.31 0.68 0.68z" fill="#2A2A2A" p-id="8664"></path><path d="M691.85 384.85c-4.49 0-8.13 3.64-8.13 8.14a8.13 8.13 0 0 0 8.13 8.13c4.49 0 8.14-3.64 8.14-8.13-0.01-4.49-3.65-8.14-8.14-8.14z m0 15.85c-4.25 0-7.71-3.45-7.71-7.71s3.45-7.71 7.71-7.71 7.71 3.45 7.71 7.71c0 4.25-3.45 7.71-7.71 7.71z" fill="#585858" p-id="8665"></path><path d="M699.98 543.23c0 4.49-3.64 8.13-8.14 8.13a8.13 8.13 0 0 1-8.13-8.13 8.134 8.134 0 1 1 16.27 0z" fill="#434343" p-id="8666"></path><path d="M696.67 541.49h-2.29c-0.44 0-0.79-0.36-0.79-0.79v-2.29c0-0.44-0.35-0.79-0.79-0.79h-1.9c-0.44 0-0.79 0.35-0.79 0.79v2.29c0 0.44-0.35 0.79-0.79 0.79h-2.29c-0.44 0-0.79 0.35-0.79 0.79v1.9c0 0.44 0.36 0.79 0.79 0.79h2.29c0.44 0 0.79 0.35 0.79 0.79v2.29c0 0.44 0.36 0.79 0.79 0.79h1.9c0.44 0 0.79-0.36 0.79-0.79v-2.29c0-0.44 0.36-0.79 0.79-0.79h2.29c0.44 0 0.79-0.36 0.79-0.79v-1.9c0-0.44-0.35-0.79-0.79-0.79z m0.04 2.56c0 0.38-0.31 0.68-0.68 0.68h-1.98c-0.38 0-0.69 0.31-0.69 0.69v1.98c0 0.38-0.31 0.68-0.69 0.68h-1.64a0.68 0.68 0 0 1-0.68-0.68v-1.98c0-0.38-0.31-0.69-0.69-0.69h-1.98a0.69 0.69 0 0 1-0.69-0.68v-1.65c0-0.38 0.31-0.68 0.69-0.68h1.98c0.38 0 0.69-0.31 0.69-0.69v-1.98c0-0.38 0.31-0.68 0.68-0.68h1.64c0.38 0 0.69 0.31 0.69 0.68v1.98c0 0.38 0.31 0.69 0.69 0.69h1.98c0.38 0 0.68 0.31 0.68 0.68v1.65z" fill="#323232" p-id="8667"></path><path d="M696.71 542.4v1.65c0 0.38-0.31 0.68-0.68 0.68h-1.98c-0.38 0-0.69 0.31-0.69 0.69v1.98c0 0.38-0.31 0.68-0.69 0.68h-1.64a0.68 0.68 0 0 1-0.68-0.68v-1.98c0-0.38-0.31-0.69-0.69-0.69h-1.98a0.69 0.69 0 0 1-0.69-0.68v-1.65c0-0.38 0.31-0.68 0.69-0.68h1.98c0.38 0 0.69-0.31 0.69-0.69v-1.98c0-0.38 0.31-0.68 0.68-0.68h1.64c0.38 0 0.69 0.31 0.69 0.68v1.98c0 0.38 0.31 0.69 0.69 0.69h1.98c0.37 0 0.68 0.3 0.68 0.68z" fill="#2A2A2A" p-id="8668"></path><path d="M691.85 535.09c-4.49 0-8.13 3.64-8.13 8.14s3.64 8.13 8.13 8.13 8.14-3.64 8.14-8.13-3.65-8.14-8.14-8.14z m0 15.84c-4.25 0-7.71-3.45-7.71-7.71s3.45-7.71 7.71-7.71 7.71 3.45 7.71 7.71-3.45 7.71-7.71 7.71z" fill="#585858" p-id="8669"></path><path d="M622.48 379.5h44.94v177.2h-44.94z" fill="#C3C6C3" p-id="8670"></path><path d="M622.48 406.9h44.94v122.41h-44.94z" fill="#FFFFFF" p-id="8671"></path><path d="M624.62 411.18h11.98v9.42h-11.98z" fill="#D4D0DB" p-id="8672"></path><path d="M624.62 422.31h38.09v7.7h-38.09z" fill="#F4E9AD" p-id="8673"></path><path d="M666.76 516.38v-0.6c-6.88 0.25-14.2 0.39-21.81 0.39-7.61 0-14.93-0.14-21.81-0.39v0.6c0 0.39 0.28 0.7 0.64 0.72 6.69 0.27 13.8 0.42 21.17 0.42s14.48-0.15 21.17-0.42c0.36-0.02 0.64-0.33 0.64-0.72z" fill="#EAEA00" p-id="8674"></path><path d="M666.76 515.78v-15.62c-2.81-0.11-5.7-0.19-8.65-0.24-4.27-0.1-8.66-0.14-13.16-0.14s-8.9 0.05-13.16 0.14c-2.95 0.06-5.84 0.14-8.65 0.24v15.62c6.88 0.25 14.2 0.39 21.81 0.39 7.6-0.01 14.93-0.14 21.81-0.39z" fill="#FFFF00" p-id="8675"></path><path d="M658.11 498.58v-1.39c-4.27-0.09-8.66-0.13-13.16-0.13s-8.9 0.04-13.16 0.13v1.39c4.27-0.09 8.66-0.13 13.16-0.13 4.5-0.01 8.89 0.04 13.16 0.13z" fill="#C3C300" p-id="8676"></path><path d="M658.11 473.43v-0.38c0-0.87-0.82-1.58-1.83-1.58h-22.67c-1.01 0-1.83 0.71-1.83 1.58v0.38h26.33z" fill="#FFFF00" p-id="8677"></path><path d="M658.11 497.19v-23.76h-26.32v23.76c4.27-0.09 8.66-0.13 13.16-0.13s8.89 0.04 13.16 0.13z" fill="#EAEA00" p-id="8678"></path><path d="M644.95 475.4c-2.73 0-4.96 3.05-4.96 6.81s2.23 6.81 4.96 6.81c2.74 0 4.96-3.05 4.96-6.81 0-3.77-2.22-6.81-4.96-6.81z m0 12.43c-2.26 0-4.1-2.51-4.1-5.62s1.83-5.63 4.1-5.63c2.26 0 4.1 2.52 4.1 5.63s-1.84 5.62-4.1 5.62z" fill="#333333" p-id="8679"></path><path d="M659.86 499.69v-28.5c0-0.71-0.52-1.29-1.16-1.29h-27.51c-0.64 0-1.16 0.58-1.16 1.29v28.5c0.58-0.02 1.17-0.03 1.75-0.04V473.1c0-0.9 0.82-1.64 1.83-1.64h22.67c1.01 0 1.83 0.74 1.83 1.64v26.54c0.59 0.01 1.17 0.03 1.75 0.05z" fill="#C3C6C3" p-id="8680"></path><path d="M666.76 500.16v-0.41c0-0.49-0.36-0.9-0.82-0.92-2.55-0.11-5.16-0.19-7.82-0.25-4.27-0.11-8.66-0.16-13.16-0.16s-8.9 0.05-13.16 0.16c-2.66 0.06-5.28 0.15-7.82 0.25-0.46 0.02-0.82 0.43-0.82 0.92v0.41c2.81-0.11 5.7-0.19 8.65-0.24 4.27-0.1 8.66-0.14 13.16-0.14s8.9 0.05 13.16 0.14c2.93 0.05 5.82 0.13 8.63 0.24z" fill="#FFFFB1" p-id="8681"></path><path d="M653.08 392.99c0 4.49-3.64 8.13-8.14 8.13a8.13 8.13 0 0 1-8.13-8.13c0-4.49 3.64-8.14 8.13-8.14 4.5 0 8.14 3.65 8.14 8.14z" fill="#434343" p-id="8682"></path><path d="M649.77 391.25h-2.29c-0.44 0-0.79-0.36-0.79-0.79v-2.29c0-0.44-0.35-0.79-0.79-0.79H644c-0.44 0-0.79 0.35-0.79 0.79v2.29c0 0.44-0.35 0.79-0.79 0.79h-2.29c-0.44 0-0.79 0.35-0.79 0.79v1.9c0 0.44 0.36 0.79 0.79 0.79h2.29c0.44 0 0.79 0.35 0.79 0.79v2.29c0 0.44 0.36 0.79 0.79 0.79h1.9c0.44 0 0.79-0.36 0.79-0.79v-2.29c0-0.44 0.36-0.79 0.79-0.79h2.29c0.44 0 0.79-0.36 0.79-0.79v-1.9c0-0.44-0.35-0.79-0.79-0.79z m0.04 2.56c0 0.38-0.31 0.68-0.68 0.68h-1.98c-0.38 0-0.69 0.31-0.69 0.69v1.98c0 0.38-0.31 0.68-0.69 0.68h-1.64a0.68 0.68 0 0 1-0.68-0.68v-1.98c0-0.38-0.31-0.69-0.69-0.69h-1.98a0.69 0.69 0 0 1-0.69-0.68v-1.65c0-0.38 0.31-0.68 0.69-0.68h1.98c0.38 0 0.69-0.31 0.69-0.69v-1.98c0-0.38 0.31-0.68 0.68-0.68h1.64c0.38 0 0.69 0.31 0.69 0.68v1.98c0 0.38 0.31 0.69 0.69 0.69h1.98c0.38 0 0.68 0.31 0.68 0.68v1.65z" fill="#323232" p-id="8683"></path><path d="M649.81 392.16v1.65c0 0.38-0.31 0.68-0.68 0.68h-1.98c-0.38 0-0.69 0.31-0.69 0.69v1.98c0 0.38-0.31 0.68-0.69 0.68h-1.64a0.68 0.68 0 0 1-0.68-0.68v-1.98c0-0.38-0.31-0.69-0.69-0.69h-1.98a0.69 0.69 0 0 1-0.69-0.68v-1.65c0-0.38 0.31-0.68 0.69-0.68h1.98c0.38 0 0.69-0.31 0.69-0.69v-1.98c0-0.38 0.31-0.68 0.68-0.68h1.64c0.38 0 0.69 0.31 0.69 0.68v1.98c0 0.38 0.31 0.69 0.69 0.69h1.98c0.37 0 0.68 0.31 0.68 0.68z" fill="#2A2A2A" p-id="8684"></path><path d="M644.95 384.85c-4.49 0-8.13 3.64-8.13 8.14 0 4.49 3.64 8.13 8.13 8.13s8.14-3.64 8.14-8.13c-0.01-4.49-3.65-8.14-8.14-8.14z m0 15.85c-4.25 0-7.71-3.45-7.71-7.71s3.45-7.71 7.71-7.71 7.71 3.45 7.71 7.71c0 4.25-3.45 7.71-7.71 7.71z" fill="#585858" p-id="8685"></path><path d="M653.08 543.23c0 4.49-3.64 8.13-8.14 8.13a8.13 8.13 0 0 1-8.13-8.13 8.134 8.134 0 1 1 16.27 0z" fill="#434343" p-id="8686"></path><path d="M649.77 541.49h-2.29c-0.44 0-0.79-0.36-0.79-0.79v-2.29c0-0.44-0.35-0.79-0.79-0.79H644c-0.44 0-0.79 0.35-0.79 0.79v2.29c0 0.44-0.35 0.79-0.79 0.79h-2.29c-0.44 0-0.79 0.35-0.79 0.79v1.9c0 0.44 0.36 0.79 0.79 0.79h2.29c0.44 0 0.79 0.35 0.79 0.79v2.29c0 0.44 0.36 0.79 0.79 0.79h1.9c0.44 0 0.79-0.36 0.79-0.79v-2.29c0-0.44 0.36-0.79 0.79-0.79h2.29c0.44 0 0.79-0.36 0.79-0.79v-1.9c0-0.44-0.35-0.79-0.79-0.79z m0.04 2.56c0 0.38-0.31 0.68-0.68 0.68h-1.98c-0.38 0-0.69 0.31-0.69 0.69v1.98c0 0.38-0.31 0.68-0.69 0.68h-1.64a0.68 0.68 0 0 1-0.68-0.68v-1.98c0-0.38-0.31-0.69-0.69-0.69h-1.98a0.69 0.69 0 0 1-0.69-0.68v-1.65c0-0.38 0.31-0.68 0.69-0.68h1.98c0.38 0 0.69-0.31 0.69-0.69v-1.98c0-0.38 0.31-0.68 0.68-0.68h1.64c0.38 0 0.69 0.31 0.69 0.68v1.98c0 0.38 0.31 0.69 0.69 0.69h1.98c0.38 0 0.68 0.31 0.68 0.68v1.65z" fill="#323232" p-id="8687"></path><path d="M649.81 542.4v1.65c0 0.38-0.31 0.68-0.68 0.68h-1.98c-0.38 0-0.69 0.31-0.69 0.69v1.98c0 0.38-0.31 0.68-0.69 0.68h-1.64a0.68 0.68 0 0 1-0.68-0.68v-1.98c0-0.38-0.31-0.69-0.69-0.69h-1.98a0.69 0.69 0 0 1-0.69-0.68v-1.65c0-0.38 0.31-0.68 0.69-0.68h1.98c0.38 0 0.69-0.31 0.69-0.69v-1.98c0-0.38 0.31-0.68 0.68-0.68h1.64c0.38 0 0.69 0.31 0.69 0.68v1.98c0 0.38 0.31 0.69 0.69 0.69h1.98c0.37 0 0.68 0.3 0.68 0.68z" fill="#2A2A2A" p-id="8688"></path><path d="M644.95 535.09c-4.49 0-8.13 3.64-8.13 8.14s3.64 8.13 8.13 8.13 8.14-3.64 8.14-8.13-3.65-8.14-8.14-8.14z m0 15.84c-4.25 0-7.71-3.45-7.71-7.71s3.45-7.71 7.71-7.71 7.71 3.45 7.71 7.71-3.45 7.71-7.71 7.71z" fill="#585858" p-id="8689"></path><path d="M816.46 136.74c-0.11-0.77-0.26-1.51-0.46-2.25-0.15-0.54-0.3-1.07-0.48-1.58-0.02-0.07-0.03-0.11-0.05-0.15-0.16-0.51-0.36-1-0.56-1.49-0.15-0.36-0.31-0.71-0.48-1.03-0.31-0.67-0.67-1.33-1.05-1.95-0.59-0.95-1.23-1.87-1.94-2.72a23.408 23.408 0 0 0-4-3.82c-0.59-0.44-1.21-0.87-1.85-1.25-0.44-0.28-0.92-0.54-1.39-0.77-0.41-0.21-0.84-0.43-1.26-0.61a2.54 2.54 0 0 0-0.41-0.18c-0.31-0.13-0.64-0.26-0.97-0.38-0.11-0.05-0.25-0.1-0.38-0.13-0.41-0.15-0.82-0.28-1.25-0.39-0.23-0.07-0.48-0.13-0.72-0.2-0.31-0.08-0.62-0.15-0.94-0.21-0.48-0.1-0.95-0.18-1.43-0.25-0.39-0.07-0.79-0.11-1.18-0.13-0.67-0.07-1.36-0.1-2.05-0.1h-396.8c-1.13 0-2.23 0.08-3.33 0.25-0.15 0.02-0.28 0.03-0.43 0.07-0.3 0.05-0.61 0.1-0.9 0.16-0.1 0.02-0.2 0.03-0.3 0.07-0.53 0.11-1.05 0.25-1.56 0.39-0.05 0.02-0.1 0.03-0.15 0.03-0.25 0.08-0.49 0.16-0.74 0.26-0.72 0.23-1.43 0.51-2.13 0.84-0.25 0.1-0.49 0.23-0.72 0.34-0.48 0.21-0.94 0.48-1.39 0.76-0.21 0.11-0.41 0.25-0.62 0.38-0.39 0.25-0.77 0.49-1.15 0.77-0.03 0.02-0.07 0.03-0.08 0.05-0.36 0.26-0.72 0.54-1.07 0.84a23.26 23.26 0 0 0-5.27 6.07c-0.16 0.28-0.33 0.56-0.48 0.84-0.36 0.64-0.67 1.31-0.97 2.02-0.15 0.34-0.28 0.69-0.41 1.05-0.11 0.28-0.21 0.57-0.31 0.87-0.3 0.94-0.54 1.92-0.72 2.92-0.07 0.33-0.11 0.66-0.16 0.98-0.02 0.08-0.02 0.16-0.03 0.26-0.05 0.36-0.08 0.72-0.1 1.1-0.07 0.59-0.08 1.18-0.08 1.79v733.22c0 4.38 1.23 8.48 3.35 11.98 0.39 0.64 0.8 1.25 1.25 1.84 0.21 0.3 0.44 0.59 0.69 0.89 0.03 0.03 0.05 0.07 0.08 0.1h0.02c0.43 0.52 0.89 1.03 1.39 1.53 0.25 0.26 0.52 0.53 0.8 0.77 0.54 0.49 1.12 0.97 1.71 1.41 0.59 0.44 1.2 0.85 1.84 1.25 0.33 0.2 0.66 0.39 0.98 0.56 0.16 0.1 0.34 0.18 0.52 0.26v0.02a22.94 22.94 0 0 0 10.47 2.51h396.8c3.77 0 7.33-0.9 10.47-2.51 0.53-0.26 1.02-0.54 1.51-0.84 0.64-0.39 1.26-0.8 1.85-1.25 0.59-0.44 1.16-0.92 1.71-1.41 0.28-0.25 0.54-0.51 0.8-0.77 0.49-0.49 0.97-1 1.39-1.53h0.02c0.03-0.03 0.05-0.07 0.08-0.1 0.23-0.3 0.46-0.59 0.69-0.89 0.43-0.59 0.85-1.2 1.25-1.84 2.12-3.49 3.33-7.6 3.33-11.98V140.25c0.01-1.19-0.09-2.36-0.25-3.51zM804.2 860.35c0 3.87-0.95 7.5-2.66 10.66-2.36 4.45-6.17 7.96-10.76 9.91a21.26 21.26 0 0 1-8.37 1.71H408.04c-2.97 0-5.81-0.61-8.38-1.71-4.59-1.95-8.4-5.48-10.76-9.91a22.572 22.572 0 0 1-2.66-10.66V153.36c0-0.74 0.03-1.46 0.11-2.18v-0.02c0.28-3.04 1.16-5.89 2.53-8.45 2.38-4.43 6.17-7.96 10.78-9.91a21.31 21.31 0 0 1 8.38-1.71h374.37c2.97 0 5.79 0.61 8.37 1.71 4.61 1.95 8.4 5.46 10.78 9.91 1.36 2.56 2.25 5.41 2.53 8.45 0.08 0.72 0.11 1.46 0.11 2.2v706.99z m-390.68 22.28v13.95h363.39v-13.95H413.52z" fill="#E3E5E4" p-id="8690"></path><path d="M816.73 140.26v16.7h-29.69c-5.59 0-10.11-4.53-10.11-10.11v-29.69h16.7c12.75 0 23.1 10.34 23.1 23.1zM373.72 140.26v16.7h29.69c5.59 0 10.11-4.53 10.11-10.11v-29.69h-16.7c-12.75 0-23.1 10.34-23.1 23.1zM816.72 856.77v16.7c0 4.38-1.21 8.48-3.33 11.98-0.39 0.64-0.82 1.25-1.25 1.84-0.23 0.3-0.46 0.59-0.69 0.89-0.03 0.03-0.05 0.07-0.08 0.1h-0.02c-0.43 0.52-0.9 1.03-1.39 1.53-0.26 0.26-0.53 0.53-0.8 0.77-0.54 0.49-1.12 0.97-1.71 1.41-0.59 0.44-1.21 0.85-1.85 1.25-0.49 0.3-0.98 0.57-1.51 0.84-3.13 1.61-6.69 2.51-10.47 2.51h-16.7v-29.68c0-5.6 4.53-10.12 10.12-10.12h29.68zM413.52 866.89v29.68h-16.7c-3.76 0-7.32-0.9-10.47-2.51-0.18-0.08-0.36-0.18-0.52-0.28-0.33-0.16-0.66-0.36-0.98-0.56-0.64-0.39-1.25-0.8-1.84-1.25-0.59-0.44-1.16-0.92-1.71-1.41-0.28-0.25-0.56-0.51-0.8-0.77-0.51-0.49-0.97-1-1.39-1.53h-0.02c-0.03-0.03-0.05-0.07-0.08-0.1-0.25-0.3-0.48-0.59-0.69-0.89-0.44-0.59-0.85-1.2-1.25-1.84-2.12-3.49-3.35-7.6-3.35-11.98v-16.7h29.7c5.58 0.02 10.1 4.55 10.1 10.14zM373.72 526.77v-39.8h25.52c7.89 0 14.28 6.39 14.28 14.28v11.24c0 7.89-6.39 14.28-14.28 14.28h-25.52zM816.73 526.77v-39.8h-25.52c-7.89 0-14.28 6.39-14.28 14.28v11.24c0 7.89 6.39 14.28 14.28 14.28h25.52z" fill="#E3E5E4" p-id="8691"></path><path d="M791.596622 142.286418a7.38 7.38 0 1 0 10.436714-10.437078 7.38 7.38 0 1 0-10.436714 10.437078Z" fill="#666D6D" p-id="8692"></path><path d="M795.176789 514.13256a7.38 7.38 0 1 0 3.392025-14.364949 7.38 7.38 0 1 0-3.392025 14.364949Z" fill="#666D6D" p-id="8693"></path><path d="M795.152835 883.978927a7.38 7.38 0 1 0 3.392024-14.36495 7.38 7.38 0 1 0-3.392024 14.36495Z" fill="#666D6D" p-id="8694"></path><path d="M388.402471 881.892397a7.38 7.38 0 1 0 10.436714-10.437078 7.38 7.38 0 1 0-10.436714 10.437078Z" fill="#666D6D" p-id="8695"></path><path d="M391.940465 514.110659a7.38 7.38 0 1 0 3.392024-14.36495 7.38 7.38 0 1 0-3.392024 14.36495Z" fill="#666D6D" p-id="8696"></path><path d="M391.956323 144.270699a7.38 7.38 0 1 0 3.392025-14.36495 7.38 7.38 0 1 0-3.392025 14.36495Z" fill="#666D6D" p-id="8697"></path><path d="M664.4 896.58h14.12v100.8H664.4zM723.47 896.58h14.12v100.8h-14.12zM759.48 417.9V802c0 3.13-2.54 5.67-5.67 5.67h-12.43c-1.92 0-3.5 1.54-3.54 3.46l-0.23 10.14-0.02 0.62v20.33h-14.13v-20.33l-0.25-23.26c-0.03-3.16 2.52-5.74 5.67-5.74h12.28a3.54 3.54 0 0 0 3.54-3.54V417.9c0-1.8 1.46-3.26 3.26-3.26h8.25c1.81 0 3.27 1.46 3.27 3.26z" fill="#3C413F" p-id="8698"></path><path d="M743.21 867.13v15.51h-25.35v-15.51c0-6.53 0.73-13.04 2.19-19.4l2.06-9.02a2.14 2.14 0 0 1 2.09-1.67h12.68c1 0 1.87 0.69 2.09 1.67l2.06 9.02a87.885 87.885 0 0 1 2.18 19.4z" fill="#666D6D" p-id="8699"></path><path d="M664.4 821.89h14.12v20.33H664.4z" fill="#3C413F" p-id="8700"></path><path d="M684.14 867.13v15.51h-25.35v-15.51c0-6.53 0.73-13.04 2.19-19.4l2.06-9.02a2.14 2.14 0 0 1 2.09-1.67h12.68c1 0 1.87 0.69 2.09 1.67l2.06 9.02a87.885 87.885 0 0 1 2.18 19.4z" fill="#666D6D" p-id="8701"></path><path d="M671.84 811.44v10.45h-4.92v-10.45c0-3.58-2.9-6.46-6.48-6.46H421.27c-11.35 0-20.61-9.25-20.61-20.62V582.35c0-7.76 6.32-14.08 14.09-14.08h46.79c2.44 0 4.45-2 4.45-4.46v-8.78h4.92v8.78c0 5.17-4.2 9.39-9.37 9.39h-46.79c-5.05 0-9.17 4.1-9.17 9.16v201.99c0 8.66 7.04 15.7 15.69 15.7h17.44v-19.67h4.92v19.67h39.9v-19.67h4.92v19.67h42.17a11.3 11.3 0 0 1-2.03-6.48v-13.19h4.92v13.19c0 3.58 2.9 6.48 6.48 6.48h51.13c4.64 0 8.42-3.77 8.42-8.42v-11.26h4.92v11.26c0 3.2-1.13 6.12-3 8.42h45.91v-19.67h4.92v19.67h8.15c6.28 0 11.4 5.1 11.4 11.39z" fill="#FFFFFF" p-id="8702"></path><path d="M607.64 355.75v4.92h-53.69c-4.17 0-7.55 3.4-7.55 7.56v212.08c0 4.22-3.43 7.65-7.65 7.65h-5.25v15.21h-4.92v-15.21h-40.02v15.21h-4.92v-15.21H449.4c-3.18 0-5.78 2.58-5.78 5.76v9.45h-4.92v-9.45c0-5.89 4.79-10.68 10.7-10.68h89.36c1.49 0 2.72-1.23 2.72-2.72V368.24c0-6.87 5.59-12.49 12.47-12.49h53.69z" fill="#FFFFFF" p-id="8703"></path><path d="M754.67 368.07v46.56h-4.92v-46.56c0-0.66-0.08-1.31-0.26-1.92-0.85-3.2-3.77-5.56-7.22-5.56h-41.2c-3.45 0-6.35 2.35-7.2 5.53-0.18 0.62-0.28 1.28-0.28 1.95v11.44h-4.92v-11.26c0-0.71-0.1-1.39-0.28-2.03-0.9-3.23-3.87-5.63-7.38-5.63h-25.92c-3.51 0-6.46 2.38-7.37 5.59-0.2 0.66-0.3 1.35-0.3 2.07v11.26h-4.92v-11.22c0-0.72-0.1-1.41-0.28-2.07a7.703 7.703 0 0 0-7.42-5.63h-26.76c-0.13 0-0.26 0-0.39 0.02-0.21 0-0.43 0.02-0.64 0.07h-53.05c-4.17 0-7.55 3.4-7.55 7.56v212.08c0 4.22-3.43 7.65-7.65 7.65h-5.25v15.21h-4.92v-15.21h-40.02v15.21h-4.92v-15.21h-34.24c-3.18 0-5.78 2.58-5.78 5.76v9.45h-4.92v-9.45c0-5.89 4.79-10.68 10.7-10.68h89.36c1.49 0 2.72-1.23 2.72-2.72V368.24c0-6.87 5.59-12.49 12.47-12.49h52.67c0.46-0.05 0.94-0.08 1.41-0.08h26.76c4.15 0 7.84 2.02 10.14 5.12 2.3-3.1 5.99-5.12" fill="#FFFFFF" p-id="8704"></path></svg>