<svg viewBox="0 0 1024 1024" version="1.1" xmlns="http://www.w3.org/2000/svg" width="1024" height="1024">
  <path d="M521.728 777.216c176.128 0 319.488-147.968 319.488-329.216 0-181.76-143.36-329.216-319.488-329.216S202.24 266.752 202.24 448c0 181.76 143.36 329.216 319.488 329.216z m0-601.6c144.896 0 262.656 122.368 262.656 272.384 0 150.016-117.76 272.384-262.656 272.384-144.896 0-262.656-122.368-262.656-272.384 0-150.016 117.76-272.384 262.656-272.384z m0 0" fill="#67C23A"></path>
  <path d="M791.552 715.776c-13.824-5.632-29.696 0-36.352 12.8-7.168 13.312-2.56 29.696 9.728 37.376 19.456 10.24 24.064 18.432 24.576 19.968-1.536 18.432-94.72 61.952-267.776 61.952-170.496 0-266.24-44.032-267.776-61.952 0-1.536 4.608-9.216 23.552-19.456 13.312-7.68 17.92-24.576 10.752-38.4-7.168-13.312-24.064-18.944-37.888-11.776-44.032 23.552-53.248 50.688-53.248 69.632 0 81.92 168.448 119.296 324.608 119.296 156.672 0 324.608-37.376 324.608-119.296 0.512-18.432-9.216-46.08-54.784-70.144zM521.728 602.624c55.296 0 106.496-29.184 133.632-77.312 27.648-47.616 27.648-106.496 0-154.624-27.648-47.616-78.848-77.312-133.632-77.312-85.504 0-154.624 69.12-154.624 154.624s69.12 154.624 154.624 154.624zM468.48 321.536c34.816 0 62.976 28.16 62.976 62.976s-28.16 62.976-62.976 62.976-62.976-28.16-62.976-62.976 28.16-62.976 62.976-62.976z m0 0" fill="#67C23A"></path>
</svg>