<?xml version="1.0" standalone="no"?><!DOCTYPE svg PUBLIC "-//W3C//DTD SVG 1.1//EN" "http://www.w3.org/Graphics/SVG/1.1/DTD/svg11.dtd"><svg t="1763628434923" class="icon" viewBox="0 0 2584 1024" version="1.1" xmlns="http://www.w3.org/2000/svg" p-id="5743" xmlns:xlink="http://www.w3.org/1999/xlink" width="504.6875" height="200"><path d="M99.653079 125.968254L563.687619 11.930413h1525.499937l393.459809 114.102857a8.126984 8.126984 0 0 1-2.275555 15.928889H101.587302a8.126984 8.126984 0 0 1-1.934223-16.026413zM2505.061587 216.535365h-2438.095238a65.015873 65.015873 0 0 0-65.015873 65.015873v666.412699a65.015873 65.015873 0 0 0 65.015873 65.015873h2438.095238a65.015873 65.015873 0 0 0 65.015873-65.015873v-666.412699a65.015873 65.015873 0 0 0-65.015873-65.015873z m0 65.015873v666.412699h-2438.095238v-666.412699h2438.095238z" fill="#2F88FF" p-id="5744"></path><path d="M414.47619 512v65.015873h-130.031746v-65.015873h-81.269841v-113.777778h292.571429v113.777778h-81.269842z m-16.253968 48.761905v-65.015873h81.269841v-81.269842h-260.063492v81.269842h81.269842v65.015873h97.523809zM812.698413 512v65.015873h-130.031746v-65.015873h-81.269842v-113.777778h292.571429v113.777778h-81.269841z m-16.253969 48.761905v-65.015873h81.269842v-81.269842H617.650794v81.269842h81.269841v65.015873h97.523809zM414.47619 788.31746v65.015873h-130.031746v-65.015873h-81.269841v-113.777777h292.571429v113.777777h-81.269842z m-16.253968 48.761905v-65.015873h81.269841v-81.269841h-260.063492v81.269841h81.269842v65.015873h97.523809zM812.698413 788.31746v65.015873h-130.031746v-65.015873h-81.269842v-113.777777h292.571429v113.777777h-81.269841z m-16.253969 48.761905v-65.015873h81.269842v-81.269841H617.650794v81.269841h81.269841v65.015873h97.523809zM1227.174603 512v65.015873h-130.031746v-65.015873h-81.269841v-113.777778h292.571428v113.777778h-81.269841z m-16.253968 48.761905v-65.015873h81.269841v-81.269842h-260.063492v81.269842h81.269841v65.015873h97.52381zM1227.174603 788.31746v65.015873h-130.031746v-65.015873h-81.269841v-113.777777h292.571428v113.777777h-81.269841z m-16.253968 48.761905v-65.015873h81.269841v-81.269841h-260.063492v81.269841h81.269841v65.015873h97.52381zM1706.666667 800.442921V439.149714h173.91746v70.135873h-105.650794v222.094223h147.911111v-70.379683l156.379429 108.348952-156.379429 98.304v-67.210158H1706.666667z m632.620698-359.407746v361.30946h-173.91746v-70.152127h105.650793V510.11454h-147.911111v70.379682L1966.730159 472.129016 2123.109587 373.84127v67.193905h216.177778z" fill="#1E64E6" p-id="5745"></path></svg>